<?xml version="1.0"?>
<svg xmlns="http://www.w3.org/2000/svg" xmlns:xlink="http://www.w3.org/1999/xlink" xmlns:svgjs="http://svgjs.com/svgjs" version="1.1" width="512" height="512" x="0" y="0" viewBox="0 0 1091.2499 1091" style="enable-background:new 0 0 512 512" xml:space="preserve" class=""><g>
<g xmlns="http://www.w3.org/2000/svg" id="surface1">
<path d="M 863.875 44.050781 C 790.949219 14.941406 713.121094 0.0429688 634.601562 0.125 L 623.570312 0.125 L 623.570312 78.070312 L 829.851562 78.070312 Z M 863.875 44.050781 " style="" fill="#fdecec" data-original="#000000" class=""/>
<path d="M 233.835938 117.046875 C 160.617188 117.074219 88.667969 136.183594 25.082031 172.492188 C 9.589844 181.355469 0.0078125 197.839844 0 215.691406 L 0 311.914062 L 38.976562 311.914062 C 38.976562 247.347656 91.324219 194.992188 155.890625 194.992188 C 220.453125 194.992188 272.8125 247.347656 272.8125 311.914062 L 584.601562 311.914062 L 584.601562 117.046875 Z M 448.195312 136.53125 L 526.140625 136.53125 L 526.140625 175.507812 L 448.195312 175.507812 Z M 448.195312 136.53125 " style="" fill="#fdecec" data-original="#000000" class=""/>
<path d="M 155.890625 233.96875 C 112.847656 233.96875 77.945312 268.863281 77.945312 311.914062 C 77.945312 354.957031 112.847656 389.859375 155.890625 389.859375 C 198.941406 389.859375 233.835938 354.957031 233.835938 311.914062 C 233.835938 268.863281 198.941406 233.96875 155.890625 233.96875 Z M 155.890625 233.96875 " style="" fill="#fdecec" data-original="#000000" class=""/>
<path d="M 310.265625 78.070312 L 584.601562 78.070312 L 584.601562 0.984375 C 489.867188 5.109375 397.324219 30.8125 314.03125 76.125 Z M 310.265625 78.070312 " style="" fill="#fdecec" data-original="#000000" class=""/>
<path d="M 1091.25 136.53125 L 1091.25 114.457031 L 971.558594 97.371094 C 968.878906 96.980469 966.296875 96.039062 964.011719 94.601562 C 944.066406 82.183594 923.445312 70.90625 902.226562 60.816406 L 851.699219 111.339844 C 848.046875 114.992188 843.09375 117.046875 837.921875 117.046875 L 623.570312 117.046875 L 623.570312 311.914062 L 779.460938 311.914062 C 779.53125 247.363281 831.832031 195.058594 896.382812 194.992188 C 900.402344 194.992188 904.359375 195.210938 908.261719 195.601562 C 909.710938 195.742188 911.089844 196.050781 912.53125 196.242188 C 914.96875 196.59375 917.429688 196.867188 919.828125 197.351562 C 921.320312 197.664062 922.75 198.132812 924.234375 198.484375 C 926.488281 199.046875 928.773438 199.527344 930.988281 200.21875 C 932.644531 200.738281 934.226562 201.414062 935.855469 201.988281 C 937.496094 202.574219 939.761719 203.335938 941.714844 204.132812 C 943.652344 204.933594 944.949219 205.671875 946.558594 206.445312 C 948.179688 207.230469 950.160156 208.085938 951.902344 209.027344 C 953.632812 209.960938 954.976562 210.871094 956.515625 211.804688 C 958.054688 212.75 959.878906 213.753906 961.507812 214.847656 C 963.128906 215.945312 964.527344 217.066406 966.03125 218.179688 C 967.523438 219.296875 969.042969 220.339844 970.492188 221.53125 C 971.929688 222.722656 973.339844 224.09375 974.757812 225.433594 C 976.1875 226.769531 977.488281 227.808594 978.773438 229.078125 C 980.054688 230.34375 981.375 231.898438 982.671875 233.320312 C 983.957031 234.753906 985.144531 235.9375 986.289062 237.222656 C 987.433594 238.5 988.648438 240.304688 989.824219 241.851562 C 990.988281 243.414062 992.027344 244.679688 993.039062 246.167969 C 994.050781 247.65625 994.984375 249.4375 996.101562 251.097656 C 997.203125 252.75 998.042969 254.160156 998.925781 255.761719 C 999.792969 257.355469 1000.621094 259.179688 1001.457031 260.898438 C 1002.292969 262.613281 1003.144531 264.183594 1003.867188 265.902344 C 1004.59375 267.613281 1005.234375 269.46875 1005.824219 271.265625 C 1006.40625 273.054688 1007.207031 274.773438 1007.761719 276.585938 C 1008.34375 278.386719 1008.765625 280.269531 1009.253906 282.121094 C 1009.734375 283.96875 1010.296875 285.808594 1010.714844 287.707031 C 1011.121094 289.617188 1011.328125 291.5 1011.640625 293.375 C 1011.960938 295.277344 1012.328125 297.28125 1012.542969 299.234375 C 1012.761719 301.179688 1012.78125 303.117188 1012.890625 305.066406 C 1013.007812 307.03125 1013.210938 308.640625 1013.242188 310.425781 L 1069.140625 288.054688 C 1082.542969 282.792969 1091.332031 269.808594 1091.25 255.398438 L 1091.25 175.507812 L 1032.789062 175.507812 L 1032.789062 136.53125 Z M 1091.25 136.53125 " style="" fill="#fdecec" data-original="#000000" class=""/>
<path d="M 896.382812 233.96875 C 853.339844 233.96875 818.4375 268.863281 818.4375 311.914062 C 818.4375 354.957031 853.339844 389.859375 896.382812 389.859375 C 939.433594 389.859375 974.328125 354.957031 974.328125 311.914062 C 974.328125 268.863281 939.433594 233.96875 896.382812 233.96875 Z M 896.382812 233.96875 " style="" fill="#fdecec" data-original="#000000" class=""/>
</g>
</g></svg>
