<?xml version="1.0"?>
<svg xmlns="http://www.w3.org/2000/svg" xmlns:xlink="http://www.w3.org/1999/xlink" viewBox="0 0 512 512" width="512" height="512"><linearGradient id="a" gradientUnits="userSpaceOnUse" x1="155" x2="155" y1="13.823" y2="488.022"><stop offset="0" stop-color="#00efd1"/><stop offset="1" stop-color="#00acea"/></linearGradient><linearGradient id="b" x1="256" x2="256" xlink:href="#a" y1="13.823" y2="488.022"/><path d="m196 265a10 10 0 0 0 -10-10h-62a10 10 0 0 0 -10 10v43a10 10 0 0 0 10 10h62a10 10 0 0 0 10-10zm-20 33h-42v-23h42z" fill="url(#a)"/><path d="m427.771 229.886-21.341-2.048a113.038 113.038 0 0 0 -10.388-24.59l13.452-16.273a10 10 0 0 0 -.6-13.4l-26.563-26.9a10 10 0 0 0 -13.5-.677l-16.326 13.518a114.722 114.722 0 0 0 -24.54-10.375l-2.048-21.177a9.933 9.933 0 0 0 -9.948-8.964h-33.969v-30a10 10 0 0 0 -20 0v18h-99.832a36.518 36.518 0 0 0 -33.959 23.8l-29.926 80.853c-.043.116-.068.278-.106.394l-7.532 6.958a49.747 49.747 0 0 0 -15.645 35.879v119.369c0 19.97 16.623 35.747 36.592 35.747h21.846c19.969 0 36.562-15.777 36.562-35.747v-15.253h92v64a10 10 0 0 0 20 0v-24h33.969a10.014 10.014 0 0 0 9.954-9.057l2.048-21.255a112.868 112.868 0 0 0 24.59-10.345l16.273 13.474a10 10 0 0 0 13.449-.631l26.9-26.9a10 10 0 0 0 .631-13.45l-13.519-16.323a114.787 114.787 0 0 0 10.378-24.548l21.111-2.041a10.167 10.167 0 0 0 9.216-9.951v-38.133a10.166 10.166 0 0 0 -9.229-9.954zm-145.771-13.169a44.734 44.734 0 1 1 0 84.363zm-135.037-79.071a16.339 16.339 0 0 1 15.205-10.646h99.832v78h-9.331c-4.76-27-28.779-48.5-57.625-48.5s-52.865 21.5-57.625 48.5h-15.389zm85.254 67.354h-74.346c4.415-16 19.4-28.5 37.173-28.5s32.756 12.5 37.173 28.5zm-82.217 169.253c0 8.941-7.621 15.747-16.562 15.747h-21.846c-8.941 0-16.592-6.806-16.592-15.747v-18.753a37.715 37.715 0 0 0 16.592 3.5h38.408zm-38.408-35.253c-8.942 0-16.592-6.926-16.592-15.866v-68.25a29.866 29.866 0 0 1 9.377-21.425l9.033-8.459h148.59v39h-31.347a10 10 0 0 0 0 20h31.347v5h-31.347a10 10 0 0 0 0 20h31.347v30zm305.408-70.1-19.078 1.843a10.11 10.11 0 0 0 -8.9 7.84 95.145 95.145 0 0 1 -13.315 31.417 10 10 0 0 0 .678 11.8l12.227 14.779-14.028 14.021-14.784-12.235a10 10 0 0 0 -11.927-.618 91.979 91.979 0 0 1 -31.3 13.187 10.019 10.019 0 0 0 -7.841 8.831l-1.846 19.235h-24.886v-57.107a64.719 64.719 0 1 0 0-125.987v-56.906h24.886l1.852 19.141a9.957 9.957 0 0 0 7.841 8.777 94.984 94.984 0 0 1 31.421 13.249 10 10 0 0 0 11.8-.711l14.734-12.206 13.766 13.938-12.276 14.823a10 10 0 0 0 -.618 11.924 91.974 91.974 0 0 1 13.187 31.3 10.22 10.22 0 0 0 9 7.839l19.407 1.848z" fill="url(#b)"/></svg>
