<?xml version="1.0"?>
<svg xmlns="http://www.w3.org/2000/svg" xmlns:xlink="http://www.w3.org/1999/xlink" xmlns:svgjs="http://svgjs.com/svgjs" version="1.1" width="512" height="512" x="0" y="0" viewBox="0 0 512 512" style="enable-background:new 0 0 512 512" xml:space="preserve" class=""><g><g xmlns="http://www.w3.org/2000/svg" id="outline"><path d="M472,280h-5.35C449.045,215.532,389.974,168,320,168H242.252a71.85,71.85,0,0,0-59.907,32.062L171.719,216H128a87.6,87.6,0,0,0-82.082,56.246A66.063,66.063,0,0,0,41.1,280H40a24.114,24.114,0,0,0-24,24,24.028,24.028,0,0,0,24,24H58.75a47.99,47.99,0,0,0,90.5,0h197.5a47.99,47.99,0,0,0,90.5,0H472a24.114,24.114,0,0,0,24-24A24.028,24.028,0,0,0,472,280Zm-32.026-24a80.049,80.049,0,0,0-127.582,56H296V232H423.6A136.546,136.546,0,0,1,439.973,256Zm-59.192-40a94.845,94.845,0,0,0-22.042-26.378A135.849,135.849,0,0,1,407.529,216Zm-82.448-32a78.332,78.332,0,0,1,63.436,32H296V184Zm-56.081,0H280v32h-89.05l4.709-7.064A55.886,55.886,0,0,1,242.252,184ZM176,232H280v80H183.89A76.007,76.007,0,0,0,108,240a77.114,77.114,0,0,0-16.281,1.731A72.052,72.052,0,0,1,128,232ZM40,312a8.009,8.009,0,0,1-8-8,7.655,7.655,0,0,1,2.3-5.547c.052-.051.1-.1.154-.154A7.657,7.657,0,0,1,40,296H58.75A47.774,47.774,0,0,0,56,312Zm64,32a32,32,0,1,1,32-32A32.037,32.037,0,0,1,104,344Zm0-80a47.888,47.888,0,0,0-35.739,16H60.1l.02-.06A59.949,59.949,0,0,1,167.851,312H152A48.053,48.053,0,0,0,104,264Zm288,80a32,32,0,1,1,32-32A32.037,32.037,0,0,1,392,344Zm0-80a48.055,48.055,0,0,0-48,48H328.509a64.017,64.017,0,0,1,120.828-20.395A62.307,62.307,0,0,1,455.478,312H440A48.053,48.053,0,0,0,392,264Zm85.7,45.547-.154.154A7.651,7.651,0,0,1,472,312h-.209a152,152,0,0,0-1.691-16H472a8.009,8.009,0,0,1,8,8A7.658,7.658,0,0,1,477.7,309.548Z" fill="#ffffff" data-original="#000000" style="" class=""/><rect x="231.998" y="248.001" width="32" height="16" fill="#ffffff" data-original="#000000" style="" class=""/><circle cx="103.998" cy="312.001" r="16" fill="#ffffff" data-original="#000000" style="" class=""/><circle cx="391.998" cy="312.001" r="16" fill="#ffffff" data-original="#000000" style="" class=""/></g></g></svg>
