<svg width="21" height="20" viewBox="0 0 21 20" fill="none" xmlns="http://www.w3.org/2000/svg">
<g clip-path="url(#clip0)">
<path d="M13.1574 9.08516C12.3495 8.65144 11.4906 8.32099 10.6402 7.97814C10.1469 7.77987 9.67492 7.54855 9.25821 7.22636C8.43754 6.59024 8.59487 5.55757 9.55586 5.14864C9.82799 5.03298 10.1129 4.99581 10.402 4.97928C11.5161 4.92145 12.5749 5.11972 13.5826 5.59062C14.0844 5.82607 14.2502 5.75172 14.4203 5.24364C14.5989 4.70666 14.7477 4.16141 14.9136 3.62029C15.0241 3.2568 14.8881 3.01722 14.5351 2.86438C13.8888 2.58763 13.2255 2.38936 12.5281 2.28196C11.6181 2.14565 11.6181 2.14152 11.6139 1.25343C11.6096 0.00183587 11.6096 0.00183585 10.317 0.00183585C10.1299 0.00183585 9.9428 -0.00229481 9.75571 0.00183585C9.1519 0.0183585 9.04985 0.121625 9.03284 0.71231C9.02434 0.976672 9.03284 1.24103 9.02859 1.50953C9.02434 2.29435 9.02009 2.28196 8.2462 2.55458C6.37525 3.21549 5.21867 4.45469 5.09535 6.43741C4.9848 8.19294 5.92878 9.37844 7.41277 10.2417C8.32699 10.7746 9.339 11.0885 10.3085 11.5057C10.6869 11.6668 11.0484 11.8527 11.363 12.1088C12.2942 12.8565 12.1242 14.0998 11.0186 14.5707C10.4275 14.8226 9.80248 14.8846 9.16041 14.8061C8.16966 14.6863 7.22143 14.4344 6.32848 13.9841C5.80546 13.7198 5.65239 13.79 5.4738 14.3394C5.32072 14.8144 5.18465 15.2935 5.04858 15.7727C4.86574 16.4171 4.93377 16.5699 5.56734 16.8715C6.37525 17.2515 7.23844 17.4456 8.11863 17.5819C8.80748 17.6893 8.82874 17.7182 8.83724 18.4122C8.8415 18.7261 8.8415 19.0442 8.84575 19.3581C8.85 19.7547 9.0456 19.986 9.46656 19.9942C9.9428 20.0025 10.4233 20.0025 10.8995 19.9901C11.2907 19.9818 11.4906 19.7753 11.4906 19.3912C11.4906 18.9616 11.5118 18.5279 11.4948 18.0983C11.4736 17.6604 11.6692 17.4374 12.1029 17.3217C13.1021 17.0573 13.9526 16.5369 14.6074 15.7603C16.4273 13.6124 15.7342 10.4689 13.1574 9.08516Z" fill="#79A3D9"/>
</g>
<defs>
<clipPath id="clip0">
<rect width="20.5882" height="20" fill="white"/>
</clipPath>
</defs>
</svg>
