<?xml version="1.0"?>
<svg xmlns="http://www.w3.org/2000/svg" xmlns:xlink="http://www.w3.org/1999/xlink" xmlns:svgjs="http://svgjs.com/svgjs" version="1.1" width="512" height="512" x="0" y="0" viewBox="0 0 512 512" style="enable-background:new 0 0 512 512" xml:space="preserve" class=""><g><g xmlns="http://www.w3.org/2000/svg"><g><path d="m270.872 435.792h-225.036c-17.003 0-30.836-13.833-30.836-30.836v-263.773h447.86v137.522c0 4.142 3.358 7.5 7.5 7.5s7.5-3.358 7.5-7.5v-186.136c0-23.647-18.001-43.166-41.019-45.581v-11.496c0-15.542-12.645-28.187-28.187-28.187s-28.187 12.645-28.187 28.187v11.241h-52.692v-11.241c0-15.542-12.645-28.187-28.187-28.187s-28.187 12.645-28.187 28.187v11.241h-52.692v-11.241c0-15.542-12.645-28.187-28.187-28.187s-28.187 12.645-28.187 28.187v11.241h-52.692v-11.241c0-15.542-12.645-28.187-28.187-28.187s-28.187 12.645-28.187 28.187v11.241h-7.433c-25.274 0-45.836 20.562-45.836 45.836v312.387c0 25.274 20.562 45.836 45.836 45.836h225.036c4.142 0 7.5-3.358 7.5-7.5s-3.358-7.5-7.5-7.5zm124.595-400.3c0-7.271 5.916-13.187 13.187-13.187s13.187 5.916 13.187 13.187v37.482c0 7.271-5.916 13.187-13.187 13.187s-13.187-5.916-13.187-13.187zm-109.066 0c0-7.271 5.916-13.187 13.187-13.187s13.187 5.916 13.187 13.187v37.482c0 7.271-5.916 13.187-13.187 13.187-7.271 0-13.187-5.916-13.187-13.187zm-109.066 0c0-7.271 5.916-13.187 13.187-13.187s13.187 5.916 13.187 13.187v37.482c0 7.271-5.916 13.187-13.187 13.187s-13.187-5.916-13.187-13.187zm-109.066 0c0-7.271 5.916-13.187 13.187-13.187s13.187 5.916 13.187 13.187v37.482c0 7.271-5.916 13.187-13.187 13.187-7.271 0-13.187-5.916-13.187-13.187zm-53.269 57.077c0-17.003 13.833-30.836 30.836-30.836h7.433v11.241c0 15.542 12.645 28.187 28.187 28.187s28.187-12.645 28.187-28.187v-11.241h52.692v11.241c0 15.542 12.645 28.187 28.187 28.187s28.187-12.645 28.187-28.187v-11.241h52.692v11.241c0 15.542 12.645 28.187 28.187 28.187s28.187-12.645 28.187-28.187v-11.241h52.692v11.241c0 15.542 12.645 28.187 28.187 28.187s28.187-12.645 28.187-28.187v-10.862c14.723 2.32 26.019 15.093 26.019 30.457v33.614h-447.86z" fill="#79a3d9" data-original="#000000" style="" class=""/><path d="m399.542 279.781c-27.906 0-53.468 10.221-73.147 27.112-3.639-4.333-9.089-7.096-15.177-7.096h-39.163c-10.93 0-19.821 8.892-19.821 19.821v39.163c0 10.929 8.892 19.821 19.821 19.821h15.858c-.543 4.472-.829 9.021-.829 13.637 0 62.009 50.448 112.457 112.457 112.457s112.458-50.448 112.458-112.457c.001-62.01-50.447-112.458-112.457-112.458zm-127.485 83.82c-2.659 0-4.821-2.163-4.821-4.821v-39.163c0-2.659 2.163-4.821 4.821-4.821h39.163c1.913 0 3.556 1.129 4.334 2.748-11.585 13.012-20.199 28.721-24.768 46.057zm146.729 124.182c-6.223 1.251-12.657 1.912-19.243 1.912s-13.02-.66-19.243-1.912v-6.764c0-19.357-7.194-38.009-20.269-52.534l-.233-.261c-8.734-9.771-13.544-22.376-13.544-35.496 0-17.805 8.961-34.426 23.627-44.277v41.137c0 11.704 9.522 21.226 21.226 21.226h16.874c11.704 0 21.226-9.522 21.226-21.226v-41.137c14.667 9.851 23.627 26.472 23.627 44.277 0 13.119-4.81 25.725-13.552 35.504l-.238.265c-13.063 14.511-20.257 33.164-20.257 52.521v6.765zm15-4.304v-2.46c0-15.645 5.826-30.733 16.421-42.502l.265-.295c11.195-12.524 17.361-28.681 17.361-45.493 0-24.52-13.257-47.285-34.598-59.41-8.488-4.822-19.03 1.275-19.03 11.046v45.224c0 3.433-2.793 6.226-6.226 6.226h-16.874c-3.433 0-6.226-2.793-6.226-6.226v-45.224c0-9.764-10.534-15.87-19.03-11.046-21.341 12.125-34.598 34.89-34.598 59.41 0 16.812 6.166 32.968 17.353 45.484l.289.322c10.579 11.751 16.405 26.84 16.405 42.484v2.46c-36.895-13.892-63.214-49.548-63.214-91.241 0-53.738 43.719-97.458 97.457-97.458s97.458 43.719 97.458 97.458c.001 41.693-26.319 77.349-63.213 91.241z" fill="#79a3d9" data-original="#000000" style="" class=""/><path d="m120.209 206.639c0-10.93-8.892-19.821-19.821-19.821h-39.162c-10.929 0-19.821 8.892-19.821 19.821v39.163c0 10.93 8.892 19.821 19.821 19.821h39.163c10.93 0 19.821-8.892 19.821-19.821v-39.163zm-15 39.162c0 2.659-2.163 4.821-4.821 4.821h-39.162c-2.658 0-4.821-2.163-4.821-4.821v-39.163c0-2.659 2.163-4.821 4.821-4.821h39.163c2.659 0 4.821 2.163 4.821 4.821v39.163z" fill="#79a3d9" data-original="#000000" style="" class=""/><path d="m225.625 206.639c0-10.93-8.892-19.821-19.821-19.821h-39.163c-10.93 0-19.821 8.892-19.821 19.821v39.163c0 10.93 8.892 19.821 19.821 19.821h39.163c10.93 0 19.821-8.892 19.821-19.821zm-15 39.162c0 2.659-2.163 4.821-4.821 4.821h-39.163c-2.659 0-4.821-2.163-4.821-4.821v-39.163c0-2.659 2.163-4.821 4.821-4.821h39.163c2.659 0 4.821 2.163 4.821 4.821z" fill="#79a3d9" data-original="#000000" style="" class=""/><path d="m272.057 186.817c-10.93 0-19.821 8.892-19.821 19.821v39.163c0 10.93 8.892 19.821 19.821 19.821h39.163c10.93 0 19.821-8.892 19.821-19.821v-39.163c0-10.93-8.892-19.821-19.821-19.821zm43.984 19.822v39.163c0 2.659-2.163 4.821-4.821 4.821h-39.163c-2.659 0-4.821-2.163-4.821-4.821v-39.163c0-2.659 2.163-4.821 4.821-4.821h39.163c2.658-.001 4.821 2.162 4.821 4.821z" fill="#79a3d9" data-original="#000000" style="" class=""/><path d="m377.472 186.817c-10.929 0-19.821 8.892-19.821 19.821v39.163c0 10.93 8.892 19.821 19.821 19.821h39.163c10.929 0 19.821-8.892 19.821-19.821v-39.163c0-10.93-8.892-19.821-19.821-19.821zm43.984 19.822v39.163c0 2.659-2.163 4.821-4.821 4.821h-39.163c-2.658 0-4.821-2.163-4.821-4.821v-39.163c0-2.659 2.163-4.821 4.821-4.821h39.163c2.658-.001 4.821 2.162 4.821 4.821z" fill="#79a3d9" data-original="#000000" style="" class=""/><path d="m100.388 299.796h-39.162c-10.929 0-19.821 8.892-19.821 19.821v39.163c0 10.93 8.892 19.821 19.821 19.821h39.163c10.93 0 19.821-8.892 19.821-19.821v-39.163c-.001-10.929-8.892-19.821-19.822-19.821zm4.821 58.984c0 2.659-2.163 4.821-4.821 4.821h-39.162c-2.658 0-4.821-2.163-4.821-4.821v-39.163c0-2.659 2.163-4.821 4.821-4.821h39.163c2.659 0 4.821 2.163 4.821 4.821v39.163z" fill="#79a3d9" data-original="#000000" style="" class=""/><path d="m205.804 299.796h-39.163c-10.93 0-19.821 8.892-19.821 19.821v39.163c0 10.93 8.892 19.821 19.821 19.821h39.163c10.93 0 19.821-8.892 19.821-19.821v-39.163c0-10.929-8.892-19.821-19.821-19.821zm4.821 58.984c0 2.659-2.163 4.821-4.821 4.821h-39.163c-2.659 0-4.821-2.163-4.821-4.821v-39.163c0-2.659 2.163-4.821 4.821-4.821h39.163c2.659 0 4.821 2.163 4.821 4.821z" fill="#79a3d9" data-original="#000000" style="" class=""/></g></g></g></svg>
