<?xml version="1.0"?>
<svg xmlns="http://www.w3.org/2000/svg" xmlns:xlink="http://www.w3.org/1999/xlink" xmlns:svgjs="http://svgjs.com/svgjs" version="1.1" width="512" height="512" x="0" y="0" viewBox="0 0 512 512" style="enable-background:new 0 0 512 512" xml:space="preserve" class=""><g><g xmlns="http://www.w3.org/2000/svg"><path d="m392 271c-16.542 0-30 13.458-30 30s13.458 30 30 30 30-13.458 30-30-13.458-30-30-30zm0 45c-8.271 0-15-6.729-15-15s6.729-15 15-15 15 6.729 15 15-6.729 15-15 15z" fill="#dbdbdb" data-original="#000000" style="" class=""/><path d="m135 331c16.542 0 30-13.458 30-30s-13.458-30-30-30-30 13.458-30 30 13.458 30 30 30zm0-45c8.271 0 15 6.729 15 15s-6.729 15-15 15-15-6.729-15-15 6.729-15 15-15z" fill="#dbdbdb" data-original="#000000" style="" class=""/><path d="m453.344 204.174-174.861-23.109c-2.835-.372-5.637.896-7.223 3.275l-12.188 18.282c-9.76 14.639-26.089 23.378-43.683 23.378h-25.51v-52.5c0-4.142-3.358-7.5-7.5-7.5h-35.129c-19.313 0-38.015 5.662-54.083 16.375l-63.108 42.073c-18.822 12.547-30.059 33.543-30.059 56.163v35.389c0 4.142 3.358 7.5 7.5 7.5h71.894c8.92 21.965 30.477 37.5 55.606 37.5 33.084 0 60-26.916 60-60s-26.916-60-60-60c-25.129 0-46.686 15.535-55.606 37.5h-64.329c.67-16.781 9.263-32.205 23.313-41.572l63.108-42.073c13.598-9.064 29.422-13.855 45.764-13.855h27.629v52.5c0 4.142 3.358 7.5 7.5 7.5h33.01c22.62 0 43.616-11.236 56.163-30.058l9.597-14.395 156.348 20.663c1.287 9.241 5.241 17.955 11.456 25.045l12.467 14.224c3.599 4.105 5.58 9.372 5.58 14.831v37.19h-15.485c.308-2.459.485-4.958.485-7.5 0-33.084-26.916-60-60-60s-60 26.916-60 60c0 2.542.177 5.041.485 7.5h-116.356c-4.142 0-7.5 3.358-7.5 7.5s3.358 7.5 7.5 7.5h120.264c8.92 21.965 30.477 37.5 55.606 37.5s46.686-15.535 55.606-37.5h56.895c4.142 0 7.5-3.358 7.5-7.5v-44.908c0-33.73-25.217-62.498-58.656-66.918zm-318.344 51.826c24.813 0 45 20.187 45 45s-20.187 45-45 45-45-20.187-45-45 20.187-45 45-45zm-59.515 52.5h-60.485v-15h60.485c-.308 2.46-.485 4.959-.485 7.5s.177 5.041.485 7.5zm316.515 37.5c-24.813 0-45-20.187-45-45s20.187-45 45-45 45 20.187 45 45-20.187 45-45 45zm105-37.5h-15v-37.19c0-9.098-3.303-17.876-9.3-24.718l-12.467-14.224c-3.322-3.789-5.704-8.253-7.018-13.036 25.088 4.224 43.785 26.148 43.785 51.761z" fill="#dbdbdb" data-original="#000000" style="" class=""/><path d="m236.19 196.382c1.279.853 2.724 1.261 4.153 1.261 2.423 0 4.802-1.173 6.247-3.341l21.094-31.641c2.298-3.446 1.367-8.103-2.08-10.4s-8.103-1.367-10.4 2.08l-21.094 31.641c-2.298 3.446-1.366 8.102 2.08 10.4z" fill="#dbdbdb" data-original="#000000" style="" class=""/><path d="m317 286v-22.5c0-4.142-3.358-7.5-7.5-7.5s-7.5 3.358-7.5 7.5v22.5c0 4.142 3.358 7.5 7.5 7.5s7.5-3.358 7.5-7.5z" fill="#dbdbdb" data-original="#000000" style="" class=""/><path d="m287 286v-22.5c0-4.142-3.358-7.5-7.5-7.5s-7.5 3.358-7.5 7.5v22.5c0 4.142 3.358 7.5 7.5 7.5s7.5-3.358 7.5-7.5z" fill="#dbdbdb" data-original="#000000" style="" class=""/><path d="m257 286v-22.5c0-4.142-3.358-7.5-7.5-7.5s-7.5 3.358-7.5 7.5v22.5c0 4.142 3.358 7.5 7.5 7.5s7.5-3.358 7.5-7.5z" fill="#dbdbdb" data-original="#000000" style="" class=""/></g></g></svg>
