<?xml version="1.0"?>
<svg xmlns="http://www.w3.org/2000/svg" xmlns:xlink="http://www.w3.org/1999/xlink" xmlns:svgjs="http://svgjs.com/svgjs" version="1.1" width="512" height="512" x="0" y="0" viewBox="0 0 60 26" style="enable-background:new 0 0 512 512" xml:space="preserve" class=""><g><g xmlns="http://www.w3.org/2000/svg" id="Page-1" fill="none" fill-rule="evenodd"><g id="011---Car" fill="rgb(0,0,0)" fill-rule="nonzero"><path id="Shape" d="m5.039 8.713-2.111.151c-.52438031.03732352-.9303266.47429476-.929 1v.136c0 .5522847.44771525 1 1 1h1.28z" fill="#99c8f2" data-original="#000000" style="" class=""/><path id="Shape" d="m13 24c1.4264953-.0036128 2.7435086-.7653325 3.458-2h-6.916c.7144914 1.2346675 2.0315047 1.9963872 3.458 2z" fill="#99c8f2" data-original="#000000" style="" class=""/><path id="Shape" d="m24-.00002555-1.91.00002555c-1.5164039-.00542128-2.9038532.85218297-3.577 2.211l-1.895 3.789h7.382z" fill="#99c8f2" data-original="#000000" style="" class=""/><path id="Shape" d="m52 12c0-.5522847.4477153-1 1-1h1.184c-.1184378-.320257-.1806856-.6585603-.184-1v-2h-23c-.5522847 0-1-.44771525-1-1s.4477153-1 1-1h9.382l-1.895-3.789c-.6731468-1.35881703-2.0605961-2.21642128-3.577-2.211h-8.91v6h1c.5522847 0 1 .44771525 1 1s-.4477153 1-1 1h-11.963l-7.837.56-.814 2.44h38.614c.5522847 0 1 .4477153 1 1s-.4477153 1-1 1h-20.382l-1.171 2.342c-.5051529 1.0189304-1.5457301 1.6619706-2.683 1.658h-9.764c-.5522847 0-1-.4477153-1-1s.4477153-1 1-1h9.764c.379067.0012129.7258235-.2132797.894-.553l.724-1.447h-16.661l-1.895 5.684c-.10157618.3049726-.05035646.6401819.1376576.9009053.18801407.2607235.48989882.4151721.8113424.4150947h38.225c0-3.3137085 2.6862915-6 6-6s6 2.6862915 6 6h1c.5522847 0 1-.4477153 1-1v-6h-4c-.5522847 0-1-.4477153-1-1z" fill="#99c8f2" data-original="#000000" style="" class=""/><path id="Shape" d="m56 8v2c0 .5522847.4477153 1 1 1s1-.4477153 1-1v-1c0-.55228475-.4477153-1-1-1z" fill="#99c8f2" data-original="#000000" style="" class=""/><path id="Shape" d="m49 16c-2.209139 0-4 1.790861-4 4s1.790861 4 4 4 4-1.790861 4-4-1.790861-4-4-4zm0 5c-.5522847 0-1-.4477153-1-1s.4477153-1 1-1 1 .4477153 1 1-.4477153 1-1 1z" fill="#99c8f2" data-original="#000000" style="" class=""/><path id="Shape" d="m28 26h-27c-.55228475 0-1-.4477153-1-1s.44771525-1 1-1h27c.5522847 0 1 .4477153 1 1s-.4477153 1-1 1z" fill="#99c8f2" data-original="#000000" style="" class=""/><path id="Shape" d="m59 26h-27c-.5522847 0-1-.4477153-1-1s.4477153-1 1-1h27c.5522847 0 1 .4477153 1 1s-.4477153 1-1 1z" fill="#99c8f2" data-original="#000000" style="" class=""/></g></g></g></svg>
