<svg width="181" height="50" viewBox="0 0 181 50" fill="none" xmlns="http://www.w3.org/2000/svg">
<path d="M78.3677 24.36C79.3437 24.568 80.1277 25.056 80.7197 25.824C81.3117 26.576 81.6077 27.44 81.6077 28.416C81.6077 29.824 81.1117 30.944 80.1197 31.776C79.1437 32.592 77.7757 33 76.0157 33H68.1677V16.152H75.7517C77.4637 16.152 78.7997 16.544 79.7597 17.328C80.7357 18.112 81.2237 19.176 81.2237 20.52C81.2237 21.512 80.9597 22.336 80.4317 22.992C79.9197 23.648 79.2317 24.104 78.3677 24.36ZM72.2717 22.968H74.9597C75.6317 22.968 76.1437 22.824 76.4957 22.536C76.8637 22.232 77.0477 21.792 77.0477 21.216C77.0477 20.64 76.8637 20.2 76.4957 19.896C76.1437 19.592 75.6317 19.44 74.9597 19.44H72.2717V22.968ZM75.2957 29.688C75.9837 29.688 76.5117 29.536 76.8797 29.232C77.2637 28.912 77.4557 28.456 77.4557 27.864C77.4557 27.272 77.2557 26.808 76.8557 26.472C76.4717 26.136 75.9357 25.968 75.2477 25.968H72.2717V29.688H75.2957ZM96.612 26.088C96.612 26.472 96.588 26.872 96.54 27.288H87.252C87.316 28.12 87.58 28.76 88.044 29.208C88.524 29.64 89.108 29.856 89.796 29.856C90.82 29.856 91.532 29.424 91.932 28.56H96.3C96.076 29.44 95.668 30.232 95.076 30.936C94.5 31.64 93.772 32.192 92.892 32.592C92.012 32.992 91.028 33.192 89.94 33.192C88.628 33.192 87.46 32.912 86.436 32.352C85.412 31.792 84.612 30.992 84.036 29.952C83.46 28.912 83.172 27.696 83.172 26.304C83.172 24.912 83.452 23.696 84.012 22.656C84.588 21.616 85.388 20.816 86.412 20.256C87.436 19.696 88.612 19.416 89.94 19.416C91.236 19.416 92.388 19.688 93.396 20.232C94.404 20.776 95.188 21.552 95.748 22.56C96.324 23.568 96.612 24.744 96.612 26.088ZM92.412 25.008C92.412 24.304 92.172 23.744 91.692 23.328C91.212 22.912 90.612 22.704 89.892 22.704C89.204 22.704 88.62 22.904 88.14 23.304C87.676 23.704 87.388 24.272 87.276 25.008H92.412ZM104.225 33.192C103.057 33.192 102.017 32.992 101.105 32.592C100.193 32.192 99.4731 31.648 98.9451 30.96C98.4171 30.256 98.1211 29.472 98.0571 28.608H102.113C102.161 29.072 102.377 29.448 102.761 29.736C103.145 30.024 103.617 30.168 104.177 30.168C104.689 30.168 105.081 30.072 105.353 29.88C105.641 29.672 105.785 29.408 105.785 29.088C105.785 28.704 105.585 28.424 105.185 28.248C104.785 28.056 104.137 27.848 103.241 27.624C102.281 27.4 101.481 27.168 100.841 26.928C100.201 26.672 99.6491 26.28 99.1851 25.752C98.7211 25.208 98.4891 24.48 98.4891 23.568C98.4891 22.8 98.6971 22.104 99.1131 21.48C99.5451 20.84 100.169 20.336 100.985 19.968C101.817 19.6 102.801 19.416 103.937 19.416C105.617 19.416 106.937 19.832 107.897 20.664C108.873 21.496 109.433 22.6 109.577 23.976H105.785C105.721 23.512 105.513 23.144 105.161 22.872C104.825 22.6 104.377 22.464 103.817 22.464C103.337 22.464 102.969 22.56 102.713 22.752C102.457 22.928 102.329 23.176 102.329 23.496C102.329 23.88 102.529 24.168 102.929 24.36C103.345 24.552 103.985 24.744 104.849 24.936C105.841 25.192 106.649 25.448 107.273 25.704C107.897 25.944 108.441 26.344 108.905 26.904C109.385 27.448 109.633 28.184 109.649 29.112C109.649 29.896 109.425 30.6 108.977 31.224C108.545 31.832 107.913 32.312 107.081 32.664C106.265 33.016 105.313 33.192 104.225 33.192ZM119.624 29.52V33H117.536C116.048 33 114.888 32.64 114.056 31.92C113.224 31.184 112.808 29.992 112.808 28.344V23.016H111.176V19.608H112.808V16.344H116.912V19.608H119.6V23.016H116.912V28.392C116.912 28.792 117.008 29.08 117.2 29.256C117.392 29.432 117.712 29.52 118.16 29.52H119.624ZM132.398 30.024H126.11L125.102 33H120.806L126.902 16.152H131.654L137.75 33H133.406L132.398 30.024ZM131.342 26.856L129.254 20.688L127.19 26.856H131.342ZM152.829 19.608V33H148.725V31.176C148.309 31.768 147.741 32.248 147.021 32.616C146.317 32.968 145.533 33.144 144.669 33.144C143.645 33.144 142.741 32.92 141.957 32.472C141.173 32.008 140.565 31.344 140.133 30.48C139.701 29.616 139.485 28.6 139.485 27.432V19.608H143.565V26.88C143.565 27.776 143.797 28.472 144.261 28.968C144.725 29.464 145.349 29.712 146.133 29.712C146.933 29.712 147.565 29.464 148.029 28.968C148.493 28.472 148.725 27.776 148.725 26.88V19.608H152.829ZM163.241 29.52V33H161.153C159.665 33 158.505 32.64 157.673 31.92C156.841 31.184 156.425 29.992 156.425 28.344V23.016H154.793V19.608H156.425V16.344H160.529V19.608H163.217V23.016H160.529V28.392C160.529 28.792 160.625 29.08 160.817 29.256C161.009 29.432 161.329 29.52 161.777 29.52H163.241ZM171.623 33.192C170.311 33.192 169.127 32.912 168.071 32.352C167.031 31.792 166.207 30.992 165.599 29.952C165.007 28.912 164.711 27.696 164.711 26.304C164.711 24.928 165.015 23.72 165.623 22.68C166.231 21.624 167.063 20.816 168.119 20.256C169.175 19.696 170.359 19.416 171.671 19.416C172.983 19.416 174.167 19.696 175.223 20.256C176.279 20.816 177.111 21.624 177.719 22.68C178.327 23.72 178.631 24.928 178.631 26.304C178.631 27.68 178.319 28.896 177.695 29.952C177.087 30.992 176.247 31.792 175.175 32.352C174.119 32.912 172.935 33.192 171.623 33.192ZM171.623 29.64C172.407 29.64 173.071 29.352 173.615 28.776C174.175 28.2 174.455 27.376 174.455 26.304C174.455 25.232 174.183 24.408 173.639 23.832C173.111 23.256 172.455 22.968 171.671 22.968C170.871 22.968 170.207 23.256 169.679 23.832C169.151 24.392 168.887 25.216 168.887 26.304C168.887 27.376 169.143 28.2 169.655 28.776C170.183 29.352 170.839 29.64 171.623 29.64Z" fill="white"/>
<path d="M50.7031 27.1196H50.1284C48.2373 20.8755 41.8917 16.2718 34.375 16.2718H26.0232C24.7496 16.2705 23.4955 16.5534 22.3726 17.0952C21.2498 17.6371 20.2931 18.421 19.5878 19.3772L18.4464 20.9208H13.75C11.8409 20.9152 9.97501 21.4333 8.40015 22.4064C6.82528 23.3794 5.61591 24.7613 4.9326 26.3686C4.74108 26.6079 4.56815 26.8588 4.41504 27.1196H4.29688C3.61411 27.1225 2.96022 27.3684 2.47742 27.8037C1.99463 28.239 1.72197 28.8285 1.71875 29.4441C1.71955 30.0604 1.99142 30.6513 2.47474 31.0871C2.95806 31.5228 3.61336 31.768 4.29688 31.7687H6.31104C6.66618 32.6752 7.32437 33.4602 8.19493 34.0154C9.06548 34.5706 10.1056 34.8687 11.1719 34.8687C12.2382 34.8687 13.2783 34.5706 14.1488 34.0154C15.0194 33.4602 15.6776 32.6752 16.0327 31.7687H37.2485C37.6037 32.6752 38.2619 33.4602 39.1324 34.0154C40.003 34.5706 41.0431 34.8687 42.1094 34.8687C43.1757 34.8687 44.2158 34.5706 45.0863 34.0154C45.9569 33.4602 46.6151 32.6752 46.9702 31.7687H50.7031C51.3859 31.7658 52.0398 31.5199 52.5226 31.0846C53.0054 30.6493 53.278 30.0598 53.2812 29.4441C53.2805 28.8279 53.0086 28.237 52.5253 27.8012C52.0419 27.3655 51.3866 27.1203 50.7031 27.1196V27.1196ZM47.2628 24.7951C46.044 23.9732 44.6052 23.4577 43.0931 23.3012C41.5811 23.1447 40.0501 23.3529 38.6565 23.9044C37.2628 24.4559 36.0565 25.3311 35.1608 26.4405C34.265 27.5499 33.7118 28.8538 33.5577 30.219H31.7969V22.4705H45.5039C46.1802 23.1868 46.7698 23.966 47.2627 24.7951H47.2628ZM40.9043 20.9208C40.2942 19.9463 39.4918 19.0805 38.5365 18.366C40.4598 18.8836 42.244 19.7533 43.7775 20.9208H40.9043ZM32.0476 17.8215C33.374 17.8173 34.6827 18.0958 35.867 18.6345C37.0512 19.1731 38.0775 19.9565 38.862 20.9208H31.7969V17.8215H32.0476ZM26.0233 17.8215H30.0781V20.9208H20.5122L21.0181 20.2367C21.5666 19.493 22.3107 18.8833 23.184 18.4619C24.0573 18.0405 25.0327 17.8205 26.0232 17.8215H26.0233ZM18.9062 22.4705H30.0781V30.219H19.7538C19.6436 28.3365 18.7367 26.5639 17.2199 25.2665C15.7032 23.9691 13.6923 23.2457 11.6016 23.2454C11.0136 23.2451 10.4274 23.3014 9.85263 23.413C11.0365 22.7937 12.3813 22.4685 13.75 22.4705H18.9062ZM4.29688 30.219C4.06903 30.2188 3.8506 30.1371 3.68949 29.9918C3.52838 29.8465 3.43776 29.6496 3.4375 29.4441C3.43639 29.3442 3.45771 29.2451 3.50017 29.1528C3.54263 29.0604 3.60535 28.9768 3.68457 28.9069C3.69016 28.902 3.69531 28.8972 3.70111 28.892C3.77866 28.8206 3.8714 28.7641 3.97378 28.7258C4.07616 28.6875 4.18606 28.6683 4.29688 28.6693H6.31104C6.11523 29.1669 6.01532 29.691 6.01562 30.219H4.29688ZM11.1719 33.3184C10.492 33.3184 9.8274 33.1366 9.2621 32.796C8.69681 32.4555 8.25622 31.9714 7.99604 31.4051C7.73586 30.8387 7.66779 30.2156 7.80043 29.6143C7.93306 29.0131 8.26045 28.4609 8.7412 28.0274C9.22194 27.5939 9.83444 27.2988 10.5013 27.1792C11.1681 27.0596 11.8592 27.121 12.4873 27.3555C13.1155 27.5901 13.6523 27.9874 14.0301 28.4971C14.4078 29.0068 14.6094 29.606 14.6094 30.219C14.6083 31.0407 14.2458 31.8285 13.6014 32.4095C12.957 32.9906 12.0832 33.3174 11.1719 33.3184ZM11.1719 25.5699C10.447 25.5698 9.73022 25.7077 9.0686 25.9748C8.40698 26.2419 7.81543 26.632 7.33272 27.1196H6.45605L6.4582 27.1138C7.24823 26.1665 8.34083 25.46 9.58926 25.0889C10.8377 24.7179 12.1821 24.7003 13.442 25.0383C14.7019 25.3764 15.8169 26.054 16.6372 26.9801C17.4575 27.9061 17.9438 29.0364 18.0309 30.219H16.3281C16.3266 28.9864 15.7829 27.8047 14.8162 26.9331C13.8496 26.0615 12.5389 25.5713 11.1719 25.5699V25.5699ZM42.1094 33.3184C41.4295 33.3184 40.7649 33.1366 40.1996 32.796C39.6343 32.4555 39.1937 31.9714 38.9335 31.4051C38.6734 30.8387 38.6053 30.2156 38.7379 29.6143C38.8706 29.0131 39.198 28.4609 39.6787 28.0274C40.1594 27.5939 40.7719 27.2988 41.4388 27.1792C42.1056 27.0596 42.7967 27.121 43.4249 27.3555C44.053 27.5901 44.5898 27.9874 44.9676 28.4971C45.3453 29.0068 45.5469 29.606 45.5469 30.219C45.5458 31.0407 45.1833 31.8285 44.5389 32.4095C43.8945 32.9906 43.0207 33.3174 42.1094 33.3184V33.3184ZM42.1094 25.5699C40.7423 25.5713 39.4317 26.0616 38.4651 26.9332C37.4984 27.8047 36.9547 28.9864 36.9531 30.219H35.2891C35.4758 28.899 36.1285 27.6682 37.1509 26.7085C38.1732 25.7488 39.5108 25.1111 40.966 24.8896C42.4213 24.6681 43.917 24.8746 45.232 25.4786C46.5471 26.0826 47.6117 27.052 48.2686 28.2436C48.6126 28.8631 48.8358 29.5313 48.9283 30.219H47.2656C47.2641 28.9864 46.7204 27.8047 45.7537 26.9331C44.7871 26.0615 43.4764 25.5713 42.1094 25.5699ZM51.3154 29.9814L51.2989 29.9963C51.2214 30.0677 51.1286 30.1243 51.0262 30.1625C50.9239 30.2008 50.8139 30.22 50.7031 30.219H50.6807C50.6505 29.6999 50.5899 29.1826 50.499 28.6693H50.7031C50.931 28.6695 51.1494 28.7512 51.3105 28.8965C51.4716 29.0418 51.5622 29.2387 51.5625 29.4441C51.5636 29.5441 51.5423 29.6432 51.4998 29.7356C51.4574 29.8279 51.3946 29.9116 51.3154 29.9815V29.9814Z" fill="white"/>
<path d="M28.3592 24.0203H24.9217V25.57H28.3592V24.0203Z" fill="white"/>
<path d="M11.1717 31.7688C12.1209 31.7688 12.8904 31.075 12.8904 30.2191C12.8904 29.3632 12.1209 28.6694 11.1717 28.6694C10.2224 28.6694 9.45291 29.3632 9.45291 30.2191C9.45291 31.075 10.2224 31.7688 11.1717 31.7688Z" fill="white"/>
<path d="M42.1092 31.7688C43.0584 31.7688 43.8279 31.075 43.8279 30.2191C43.8279 29.3632 43.0584 28.6694 42.1092 28.6694C41.1599 28.6694 40.3904 29.3632 40.3904 30.2191C40.3904 31.075 41.1599 31.7688 42.1092 31.7688Z" fill="white"/>
</svg>
