<svg width="280" height="29" viewBox="0 0 280 29" fill="none" xmlns="http://www.w3.org/2000/svg">
<path d="M9 1.82C11.72 1.82 13.86 2.62 15.42 4.22C17 5.8 17.79 8.09 17.79 11.09V23H15.6V16.82H2.4V23H0.24V11.09C0.24 8.09 1.02 5.8 2.58 4.22C4.16 2.62 6.3 1.82 9 1.82ZM15.6 14.9V10.88C15.6 8.54 15.02 6.78 13.86 5.6C12.7 4.4 11.08 3.8 9 3.8C6.92 3.8 5.3 4.4 4.14 5.6C2.98 6.78 2.4 8.54 2.4 10.88V14.9H15.6ZM38.2134 7.22V23H36.1734V20.12C35.6134 21.08 34.8434 21.83 33.8634 22.37C32.8834 22.89 31.7634 23.15 30.5034 23.15C28.4434 23.15 26.8134 22.58 25.6134 21.44C24.4334 20.28 23.8434 18.59 23.8434 16.37V7.22H25.9734V16.16C25.9734 17.82 26.3834 19.08 27.2034 19.94C28.0234 20.8 29.1934 21.23 30.7134 21.23C32.3734 21.23 33.6834 20.73 34.6434 19.73C35.6034 18.71 36.0834 17.3 36.0834 15.5V7.22H38.2134ZM51.949 22.04C51.549 22.4 51.059 22.68 50.479 22.88C49.899 23.06 49.289 23.15 48.649 23.15C47.169 23.15 46.029 22.75 45.229 21.95C44.429 21.15 44.029 20.02 44.029 18.56V3.77H46.159V7.22H50.929V9.02H46.159V18.44C46.159 19.38 46.389 20.1 46.849 20.6C47.309 21.08 47.979 21.32 48.859 21.32C49.819 21.32 50.599 21.05 51.199 20.51L51.949 22.04ZM61.7032 23.15C60.1832 23.15 58.8132 22.81 57.5932 22.13C56.3732 21.43 55.4132 20.47 54.7132 19.25C54.0132 18.03 53.6632 16.65 53.6632 15.11C53.6632 13.57 54.0132 12.19 54.7132 10.97C55.4132 9.75 56.3732 8.8 57.5932 8.12C58.8132 7.44 60.1832 7.1 61.7032 7.1C63.2232 7.1 64.5932 7.44 65.8132 8.12C67.0332 8.8 67.9832 9.75 68.6632 10.97C69.3632 12.19 69.7132 13.57 69.7132 15.11C69.7132 16.65 69.3632 18.03 68.6632 19.25C67.9832 20.47 67.0332 21.43 65.8132 22.13C64.5932 22.81 63.2232 23.15 61.7032 23.15ZM61.7032 21.26C62.8232 21.26 63.8232 21.01 64.7032 20.51C65.6032 19.99 66.3032 19.26 66.8032 18.32C67.3032 17.38 67.5532 16.31 67.5532 15.11C67.5532 13.91 67.3032 12.84 66.8032 11.9C66.3032 10.96 65.6032 10.24 64.7032 9.74C63.8232 9.22 62.8232 8.96 61.7032 8.96C60.5832 8.96 59.5732 9.22 58.6732 9.74C57.7932 10.24 57.0932 10.96 56.5732 11.9C56.0732 12.84 55.8232 13.91 55.8232 15.11C55.8232 16.31 56.0732 17.38 56.5732 18.32C57.0932 19.26 57.7932 19.99 58.6732 20.51C59.5732 21.01 60.5832 21.26 61.7032 21.26ZM96.9818 1.82C99.3818 1.82 101.252 2.51 102.592 3.89C103.932 5.27 104.602 7.27 104.602 9.89V23H102.412V9.95C102.412 7.91 101.892 6.38 100.852 5.36C99.8318 4.32 98.4318 3.8 96.6518 3.8C94.7718 3.8 93.3018 4.35 92.2418 5.45C91.1818 6.53 90.6518 8.19 90.6518 10.43V23H88.4618V9.95C88.4618 7.91 87.9618 6.38 86.9618 5.36C85.9618 4.32 84.5718 3.8 82.7918 3.8C80.8918 3.8 79.4018 4.35 78.3218 5.45C77.2618 6.53 76.7318 8.19 76.7318 10.43V23H74.5118V2H76.6418V5.51C77.2218 4.31 78.0818 3.4 79.2218 2.78C80.3618 2.14 81.7118 1.82 83.2718 1.82C84.9118 1.82 86.3118 2.17 87.4718 2.87C88.6518 3.55 89.5018 4.51 90.0218 5.75C90.6218 4.47 91.5218 3.5 92.7218 2.84C93.9418 2.16 95.3618 1.82 96.9818 1.82ZM117.279 23.15C115.759 23.15 114.389 22.81 113.169 22.13C111.949 21.43 110.989 20.47 110.289 19.25C109.589 18.03 109.239 16.65 109.239 15.11C109.239 13.57 109.589 12.19 110.289 10.97C110.989 9.75 111.949 8.8 113.169 8.12C114.389 7.44 115.759 7.1 117.279 7.1C118.799 7.1 120.169 7.44 121.389 8.12C122.609 8.8 123.559 9.75 124.239 10.97C124.939 12.19 125.289 13.57 125.289 15.11C125.289 16.65 124.939 18.03 124.239 19.25C123.559 20.47 122.609 21.43 121.389 22.13C120.169 22.81 118.799 23.15 117.279 23.15ZM117.279 21.26C118.399 21.26 119.399 21.01 120.279 20.51C121.179 19.99 121.879 19.26 122.379 18.32C122.879 17.38 123.129 16.31 123.129 15.11C123.129 13.91 122.879 12.84 122.379 11.9C121.879 10.96 121.179 10.24 120.279 9.74C119.399 9.22 118.399 8.96 117.279 8.96C116.159 8.96 115.149 9.22 114.249 9.74C113.369 10.24 112.669 10.96 112.149 11.9C111.649 12.84 111.399 13.91 111.399 15.11C111.399 16.31 111.649 17.38 112.149 18.32C112.669 19.26 113.369 19.99 114.249 20.51C115.149 21.01 116.159 21.26 117.279 21.26ZM137.408 22.04C137.008 22.4 136.518 22.68 135.938 22.88C135.358 23.06 134.748 23.15 134.108 23.15C132.628 23.15 131.488 22.75 130.688 21.95C129.888 21.15 129.488 20.02 129.488 18.56V3.77H131.618V7.22H136.388V9.02H131.618V18.44C131.618 19.38 131.848 20.1 132.308 20.6C132.768 21.08 133.438 21.32 134.318 21.32C135.278 21.32 136.058 21.05 136.658 20.51L137.408 22.04ZM147.162 23.15C145.642 23.15 144.272 22.81 143.052 22.13C141.832 21.43 140.872 20.47 140.172 19.25C139.472 18.03 139.122 16.65 139.122 15.11C139.122 13.57 139.472 12.19 140.172 10.97C140.872 9.75 141.832 8.8 143.052 8.12C144.272 7.44 145.642 7.1 147.162 7.1C148.682 7.1 150.052 7.44 151.272 8.12C152.492 8.8 153.442 9.75 154.122 10.97C154.822 12.19 155.172 13.57 155.172 15.11C155.172 16.65 154.822 18.03 154.122 19.25C153.442 20.47 152.492 21.43 151.272 22.13C150.052 22.81 148.682 23.15 147.162 23.15ZM147.162 21.26C148.282 21.26 149.282 21.01 150.162 20.51C151.062 19.99 151.762 19.26 152.262 18.32C152.762 17.38 153.012 16.31 153.012 15.11C153.012 13.91 152.762 12.84 152.262 11.9C151.762 10.96 151.062 10.24 150.162 9.74C149.282 9.22 148.282 8.96 147.162 8.96C146.042 8.96 145.032 9.22 144.132 9.74C143.252 10.24 142.552 10.96 142.032 11.9C141.532 12.84 141.282 13.91 141.282 15.11C141.282 16.31 141.532 17.38 142.032 18.32C142.552 19.26 143.252 19.99 144.132 20.51C145.032 21.01 146.042 21.26 147.162 21.26ZM159.971 2H168.521C170.741 2 172.701 2.45 174.401 3.35C176.101 4.23 177.421 5.47 178.361 7.07C179.301 8.65 179.771 10.46 179.771 12.5C179.771 14.54 179.301 16.36 178.361 17.96C177.421 19.54 176.101 20.78 174.401 21.68C172.701 22.56 170.741 23 168.521 23H159.971V2ZM168.401 21.08C170.241 21.08 171.851 20.72 173.231 20C174.611 19.26 175.681 18.25 176.441 16.97C177.201 15.67 177.581 14.18 177.581 12.5C177.581 10.82 177.201 9.34 176.441 8.06C175.681 6.76 174.611 5.75 173.231 5.03C171.851 4.29 170.241 3.92 168.401 3.92H162.191V21.08H168.401ZM191.056 21.26C192.036 21.26 192.936 21.09 193.756 20.75C194.596 20.39 195.306 19.87 195.886 19.19L197.086 20.57C196.386 21.41 195.516 22.05 194.476 22.49C193.436 22.93 192.286 23.15 191.026 23.15C189.406 23.15 187.966 22.81 186.706 22.13C185.446 21.43 184.466 20.47 183.766 19.25C183.066 18.03 182.716 16.65 182.716 15.11C182.716 13.57 183.046 12.19 183.706 10.97C184.386 9.75 185.316 8.8 186.496 8.12C187.676 7.44 189.016 7.1 190.516 7.1C191.916 7.1 193.176 7.42 194.296 8.06C195.436 8.7 196.336 9.59 196.996 10.73C197.676 11.87 198.036 13.17 198.076 14.63L185.116 17.15C185.516 18.43 186.236 19.44 187.276 20.18C188.336 20.9 189.596 21.26 191.056 21.26ZM190.516 8.93C189.416 8.93 188.426 9.19 187.546 9.71C186.686 10.21 186.006 10.92 185.506 11.84C185.026 12.74 184.786 13.78 184.786 14.96C184.786 15.26 184.796 15.48 184.816 15.62L195.946 13.46C195.706 12.14 195.096 11.06 194.116 10.22C193.136 9.36 191.936 8.93 190.516 8.93ZM206.851 23.15C205.431 23.15 204.331 22.75 203.551 21.95C202.791 21.15 202.411 20.04 202.411 18.62V0.739999H204.541V18.44C204.541 19.38 204.761 20.1 205.201 20.6C205.641 21.08 206.301 21.32 207.181 21.32C207.741 21.32 208.221 21.23 208.621 21.05L208.771 22.82C208.151 23.04 207.511 23.15 206.851 23.15ZM211.669 7.22H213.799V23H211.669V7.22ZM212.749 3.77C212.309 3.77 211.939 3.62 211.639 3.32C211.339 3.02 211.189 2.66 211.189 2.24C211.189 1.84 211.339 1.49 211.639 1.19C211.939 0.889999 212.309 0.739999 212.749 0.739999C213.189 0.739999 213.559 0.889999 213.859 1.19C214.159 1.47 214.309 1.81 214.309 2.21C214.309 2.65 214.159 3.02 213.859 3.32C213.559 3.62 213.189 3.77 212.749 3.77ZM232.986 7.22L225.966 23H223.776L216.786 7.22H219.006L224.916 20.66L230.886 7.22H232.986ZM242.296 21.26C243.276 21.26 244.176 21.09 244.996 20.75C245.836 20.39 246.546 19.87 247.126 19.19L248.326 20.57C247.626 21.41 246.756 22.05 245.716 22.49C244.676 22.93 243.526 23.15 242.266 23.15C240.646 23.15 239.206 22.81 237.946 22.13C236.686 21.43 235.706 20.47 235.006 19.25C234.306 18.03 233.956 16.65 233.956 15.11C233.956 13.57 234.286 12.19 234.946 10.97C235.626 9.75 236.556 8.8 237.736 8.12C238.916 7.44 240.256 7.1 241.756 7.1C243.156 7.1 244.416 7.42 245.536 8.06C246.676 8.7 247.576 9.59 248.236 10.73C248.916 11.87 249.276 13.17 249.316 14.63L236.356 17.15C236.756 18.43 237.476 19.44 238.516 20.18C239.576 20.9 240.836 21.26 242.296 21.26ZM241.756 8.93C240.656 8.93 239.666 9.19 238.786 9.71C237.926 10.21 237.246 10.92 236.746 11.84C236.266 12.74 236.026 13.78 236.026 14.96C236.026 15.26 236.036 15.48 236.056 15.62L247.186 13.46C246.946 12.14 246.336 11.06 245.356 10.22C244.376 9.36 243.176 8.93 241.756 8.93ZM255.692 10.31C256.192 9.25 256.932 8.45 257.912 7.91C258.912 7.37 260.142 7.1 261.602 7.1V9.17L261.092 9.14C259.432 9.14 258.132 9.65 257.192 10.67C256.252 11.69 255.782 13.12 255.782 14.96V23H253.652V7.22H255.692V10.31ZM279.913 7.22V21.08C279.913 23.76 279.303 25.74 278.083 27.02C276.863 28.32 275.023 28.97 272.563 28.97C271.183 28.97 269.873 28.75 268.633 28.31C267.413 27.89 266.423 27.3 265.663 26.54L266.743 24.92C267.423 25.6 268.263 26.13 269.263 26.51C270.263 26.89 271.333 27.08 272.473 27.08C274.293 27.08 275.633 26.61 276.493 25.67C277.353 24.75 277.783 23.31 277.783 21.35V19.52C277.223 20.44 276.453 21.15 275.473 21.65C274.513 22.15 273.423 22.4 272.203 22.4C270.143 22.4 268.513 21.83 267.313 20.69C266.133 19.53 265.543 17.84 265.543 15.62V7.22H267.673V15.41C267.673 17.07 268.083 18.33 268.903 19.19C269.723 20.05 270.893 20.48 272.413 20.48C274.073 20.48 275.383 19.98 276.343 18.98C277.303 17.96 277.783 16.55 277.783 14.75V7.22H279.913Z" fill="#E5E5E5"/>
</svg>
