<svg width="301" height="44" viewBox="0 0 301 44" fill="none" xmlns="http://www.w3.org/2000/svg">
<path d="M15.048 35.36C12.504 35.36 10.2 34.808 8.136 33.704C6.096 32.576 4.488 31.028 3.312 29.06C2.16 27.092 1.584 24.872 1.584 22.4C1.584 19.928 2.172 17.708 3.348 15.74C4.524 13.772 6.132 12.236 8.172 11.132C10.236 10.004 12.54 9.44 15.084 9.44C17.148 9.44 19.032 9.8 20.736 10.52C22.44 11.24 23.88 12.284 25.056 13.652L22.032 16.496C20.208 14.528 17.964 13.544 15.3 13.544C13.572 13.544 12.024 13.928 10.656 14.696C9.288 15.44 8.22 16.484 7.452 17.828C6.684 19.172 6.3 20.696 6.3 22.4C6.3 24.104 6.684 25.628 7.452 26.972C8.22 28.316 9.288 29.372 10.656 30.14C12.024 30.884 13.572 31.256 15.3 31.256C17.964 31.256 20.208 30.26 22.032 28.268L25.056 31.148C23.88 32.516 22.428 33.56 20.7 34.28C18.996 35 17.112 35.36 15.048 35.36ZM36.2765 15.56C39.1085 15.56 41.2685 16.244 42.7565 17.612C44.2685 18.956 45.0245 20.996 45.0245 23.732V35H40.7765V32.66C40.2245 33.5 39.4325 34.148 38.4005 34.604C37.3925 35.036 36.1685 35.252 34.7285 35.252C33.2885 35.252 32.0285 35.012 30.9485 34.532C29.8685 34.028 29.0285 33.344 28.4285 32.48C27.8525 31.592 27.5645 30.596 27.5645 29.492C27.5645 27.764 28.2005 26.384 29.4725 25.352C30.7685 24.296 32.7965 23.768 35.5565 23.768H40.5245V23.48C40.5245 22.136 40.1165 21.104 39.3005 20.384C38.5085 19.664 37.3205 19.304 35.7365 19.304C34.6565 19.304 33.5885 19.472 32.5325 19.808C31.5005 20.144 30.6245 20.612 29.9045 21.212L28.1405 17.936C29.1485 17.168 30.3605 16.58 31.7765 16.172C33.1925 15.764 34.6925 15.56 36.2765 15.56ZM35.6645 31.976C36.7925 31.976 37.7885 31.724 38.6525 31.22C39.5405 30.692 40.1645 29.948 40.5245 28.988V26.756H35.8805C33.2885 26.756 31.9925 27.608 31.9925 29.312C31.9925 30.128 32.3165 30.776 32.9645 31.256C33.6125 31.736 34.5125 31.976 35.6645 31.976ZM55.0837 18.584C56.3797 16.568 58.6597 15.56 61.9237 15.56V19.844C61.5397 19.772 61.1917 19.736 60.8797 19.736C59.1277 19.736 57.7597 20.252 56.7757 21.284C55.7917 22.292 55.2997 23.756 55.2997 25.676V35H50.7997V15.776H55.0837V18.584ZM95.1981 31.076V35H76.2981V9.8H94.6941V13.724H80.9781V20.276H93.1461V24.128H80.9781V31.076H95.1981ZM111.872 35L106.94 28.34L101.972 35H97.0037L104.492 25.244L97.3277 15.776H102.332L107.048 22.076L111.764 15.776H116.624L109.424 25.172L116.948 35H111.872ZM130.924 15.56C132.796 15.56 134.464 15.968 135.928 16.784C137.416 17.6 138.58 18.752 139.42 20.24C140.26 21.728 140.68 23.444 140.68 25.388C140.68 27.332 140.26 29.06 139.42 30.572C138.58 32.06 137.416 33.212 135.928 34.028C134.464 34.844 132.796 35.252 130.924 35.252C128.332 35.252 126.28 34.388 124.768 32.66V41.984H120.268V15.776H124.552V18.296C125.296 17.384 126.208 16.7 127.288 16.244C128.392 15.788 129.604 15.56 130.924 15.56ZM130.42 31.4C132.076 31.4 133.432 30.848 134.488 29.744C135.568 28.64 136.108 27.188 136.108 25.388C136.108 23.588 135.568 22.136 134.488 21.032C133.432 19.928 132.076 19.376 130.42 19.376C129.34 19.376 128.368 19.628 127.504 20.132C126.64 20.612 125.956 21.308 125.452 22.22C124.948 23.132 124.696 24.188 124.696 25.388C124.696 26.588 124.948 27.644 125.452 28.556C125.956 29.468 126.64 30.176 127.504 30.68C128.368 31.16 129.34 31.4 130.42 31.4ZM153.588 35.252C151.644 35.252 149.892 34.832 148.332 33.992C146.772 33.152 145.548 31.988 144.66 30.5C143.796 28.988 143.364 27.284 143.364 25.388C143.364 23.492 143.796 21.8 144.66 20.312C145.548 18.824 146.772 17.66 148.332 16.82C149.892 15.98 151.644 15.56 153.588 15.56C155.556 15.56 157.32 15.98 158.88 16.82C160.44 17.66 161.652 18.824 162.516 20.312C163.404 21.8 163.848 23.492 163.848 25.388C163.848 27.284 163.404 28.988 162.516 30.5C161.652 31.988 160.44 33.152 158.88 33.992C157.32 34.832 155.556 35.252 153.588 35.252ZM153.588 31.4C155.244 31.4 156.612 30.848 157.692 29.744C158.772 28.64 159.312 27.188 159.312 25.388C159.312 23.588 158.772 22.136 157.692 21.032C156.612 19.928 155.244 19.376 153.588 19.376C151.932 19.376 150.564 19.928 149.484 21.032C148.428 22.136 147.9 23.588 147.9 25.388C147.9 27.188 148.428 28.64 149.484 29.744C150.564 30.848 151.932 31.4 153.588 31.4ZM172.435 18.584C173.731 16.568 176.011 15.56 179.275 15.56V19.844C178.891 19.772 178.543 19.736 178.231 19.736C176.479 19.736 175.111 20.252 174.127 21.284C173.143 22.292 172.651 23.756 172.651 25.676V35H168.151V15.776H172.435V18.584ZM195.352 33.956C194.824 34.388 194.176 34.712 193.408 34.928C192.664 35.144 191.872 35.252 191.032 35.252C188.92 35.252 187.288 34.7 186.136 33.596C184.984 32.492 184.408 30.884 184.408 28.772V19.52H181.24V15.92H184.408V11.528H188.908V15.92H194.056V19.52H188.908V28.664C188.908 29.6 189.136 30.32 189.592 30.824C190.048 31.304 190.708 31.544 191.572 31.544C192.58 31.544 193.42 31.28 194.092 30.752L195.352 33.956ZM220.271 35.36C216.791 35.36 214.079 34.388 212.135 32.444C210.191 30.476 209.219 27.668 209.219 24.02V9.8H213.899V23.84C213.899 28.784 216.035 31.256 220.307 31.256C224.555 31.256 226.679 28.784 226.679 23.84V9.8H231.287V24.02C231.287 27.668 230.315 30.476 228.371 32.444C226.451 34.388 223.751 35.36 220.271 35.36ZM245.653 35.36C243.709 35.36 241.825 35.084 240.001 34.532C238.201 33.98 236.773 33.248 235.717 32.336L237.337 28.7C238.369 29.516 239.629 30.188 241.117 30.716C242.629 31.22 244.141 31.472 245.653 31.472C247.525 31.472 248.917 31.172 249.829 30.572C250.765 29.972 251.233 29.18 251.233 28.196C251.233 27.476 250.969 26.888 250.441 26.432C249.937 25.952 249.289 25.58 248.497 25.316C247.705 25.052 246.625 24.752 245.257 24.416C243.337 23.96 241.777 23.504 240.577 23.048C239.401 22.592 238.381 21.884 237.517 20.924C236.677 19.94 236.257 18.62 236.257 16.964C236.257 15.572 236.629 14.312 237.373 13.184C238.141 12.032 239.281 11.12 240.793 10.448C242.329 9.776 244.201 9.44 246.409 9.44C247.945 9.44 249.457 9.632 250.945 10.016C252.433 10.4 253.717 10.952 254.797 11.672L253.321 15.308C252.217 14.66 251.065 14.168 249.865 13.832C248.665 13.496 247.501 13.328 246.373 13.328C244.525 13.328 243.145 13.64 242.233 14.264C241.345 14.888 240.901 15.716 240.901 16.748C240.901 17.468 241.153 18.056 241.657 18.512C242.185 18.968 242.845 19.328 243.637 19.592C244.429 19.856 245.509 20.156 246.877 20.492C248.749 20.924 250.285 21.38 251.485 21.86C252.685 22.316 253.705 23.024 254.545 23.984C255.409 24.944 255.841 26.24 255.841 27.872C255.841 29.264 255.457 30.524 254.689 31.652C253.945 32.78 252.805 33.68 251.269 34.352C249.733 35.024 247.861 35.36 245.653 35.36ZM276.826 29.168H264.226L261.742 35H256.918L268.258 9.8H272.866L284.242 35H279.346L276.826 29.168ZM275.278 25.496L270.526 14.48L265.81 25.496H275.278Z" fill="#00EFD1"/>
</svg>
