<svg width="266" height="32" viewBox="0 0 266 32" fill="none" xmlns="http://www.w3.org/2000/svg">
<path d="M9.628 30.54C6.964 30.54 4.72 29.46 2.896 27.3C1.072 25.14 0.16 21.996 0.16 17.868C0.16 14.82 0.652 12.048 1.636 9.552C2.62 7.032 4.156 4.98 6.244 3.396C8.356 1.788 10.732 0.983998 13.372 0.983998C16.012 0.983998 17.932 1.632 19.132 2.928C20.332 4.2 20.932 5.664 20.932 7.32C20.932 8.976 20.512 10.308 19.672 11.316C18.832 12.3 17.74 12.792 16.396 12.792C15.964 12.792 15.436 12.696 14.812 12.504C15.364 11.928 15.844 11.124 16.252 10.092C16.684 9.036 16.9 7.98 16.9 6.924C16.9 5.868 16.612 4.968 16.036 4.224C15.484 3.456 14.596 3.072 13.372 3.072C11.524 3.072 9.868 3.84 8.404 5.376C6.964 6.888 5.872 8.76 5.128 10.992C4.408 13.2 4.048 15.48 4.048 17.832C4.048 21.144 4.684 23.628 5.956 25.284C7.228 26.916 8.872 27.732 10.888 27.732C12.232 27.732 13.612 27.324 15.028 26.508C16.444 25.692 17.608 24.516 18.52 22.98C18.88 22.98 19.216 23.088 19.528 23.304C19.84 23.52 19.996 23.736 19.996 23.952C18.652 26.496 16.96 28.26 14.92 29.244C13.144 30.108 11.38 30.54 9.628 30.54ZM30.6708 15.924C29.9748 17.124 29.4348 18.36 29.0508 19.632C28.6908 20.88 28.5108 22.08 28.5108 23.232C28.5108 24.384 28.7628 25.368 29.2668 26.184C29.7948 26.976 30.5388 27.372 31.4988 27.372C32.8428 27.372 34.1028 26.64 35.2788 25.176C36.4548 23.688 37.3548 21.9 37.9788 19.812C38.6268 17.7 38.9508 15.756 38.9508 13.98C38.9508 12.18 38.8788 10.704 38.7348 9.552C39.3108 9.504 39.6708 9.48 39.8148 9.48C41.8548 9.48 42.8748 10.524 42.8748 12.612C42.8748 13.068 42.5868 14.928 42.0108 18.192C41.4348 21.432 41.1468 24.036 41.1468 26.004C41.1468 27.948 41.5188 29.676 42.2628 31.188C40.7508 30.876 39.6468 30.216 38.9508 29.208C38.2788 28.176 37.9428 26.7 37.9428 24.78C37.9428 24.444 37.9908 23.796 38.0868 22.836C37.4388 25.116 36.2988 26.952 34.6668 28.344C33.0348 29.736 31.4268 30.432 29.8428 30.432C28.2828 30.432 27.0228 29.844 26.0628 28.668C25.1028 27.468 24.6228 25.824 24.6228 23.736C24.6228 21.624 25.0068 19.572 25.7748 17.58C26.5668 15.564 27.7428 13.824 29.3028 12.36C30.8868 10.896 32.6508 10.164 34.5948 10.164C35.4348 10.164 36.3588 10.332 37.3668 10.668C35.9508 11.028 34.6548 11.688 33.4788 12.648C32.3028 13.608 31.3668 14.7 30.6708 15.924ZM53.0184 18.3C53.8824 15.18 54.9144 12.888 56.1144 11.424C57.3384 9.936 58.4664 9.192 59.4984 9.192C60.5544 9.192 61.3464 9.588 61.8744 10.38C62.4024 11.148 62.6664 12.132 62.6664 13.332C62.6664 14.532 62.3544 15.576 61.7304 16.464C61.1064 17.328 60.1944 17.76 58.9944 17.76C58.6104 17.76 58.3104 17.736 58.0944 17.688C58.9104 16.512 59.3184 15.312 59.3184 14.088C59.3184 13.224 58.9704 12.792 58.2744 12.792C57.7224 12.792 57.1344 13.116 56.5104 13.764C55.8864 14.412 55.2864 15.312 54.7104 16.464C54.1344 17.616 53.6544 19.116 53.2704 20.964C52.8864 22.812 52.6944 24.804 52.6944 26.94C52.6944 27.18 52.7544 28.2 52.8744 30C52.2504 30.048 51.8904 30.072 51.7944 30.072C49.6824 30.072 48.6264 29.04 48.6264 26.976C48.6264 26.496 48.8784 24.648 49.3824 21.432C49.8864 18.216 50.1384 15.66 50.1384 13.764C50.1384 11.844 49.9344 10.08 49.5264 8.472C50.9424 9.024 51.9264 9.816 52.4784 10.848C53.0544 11.856 53.3424 13.044 53.3424 14.412C53.3424 15.756 53.2344 17.052 53.0184 18.3ZM72.4185 10.992C71.6265 10.992 70.9065 11.244 70.2585 11.748C69.6345 12.252 69.3225 12.948 69.3225 13.836C69.3225 14.7 69.6105 15.516 70.1865 16.284C70.7865 17.052 71.5065 17.736 72.3465 18.336C73.1865 18.936 74.0385 19.548 74.9025 20.172C76.9185 21.66 77.9265 23.256 77.9265 24.96C77.9265 26.664 77.2425 28.056 75.8745 29.136C74.5065 30.192 72.7545 30.72 70.6185 30.72C68.5065 30.72 66.8625 30.3 65.6865 29.46C64.5345 28.62 63.9585 27.636 63.9585 26.508C63.9585 25.356 64.2465 24.456 64.8225 23.808C65.3985 23.16 66.0945 22.836 66.9105 22.836C67.3425 22.836 67.7505 22.932 68.1345 23.124C67.6065 23.796 67.3425 24.588 67.3425 25.5C67.3425 26.412 67.6185 27.18 68.1705 27.804C68.7465 28.428 69.5265 28.74 70.5105 28.74C71.5185 28.74 72.3705 28.488 73.0665 27.984C73.7625 27.456 74.1105 26.796 74.1105 26.004C74.1105 25.212 73.9065 24.516 73.4985 23.916C73.0905 23.316 72.5745 22.8 71.9505 22.368C71.3505 21.936 70.6905 21.456 69.9705 20.928C69.2505 20.4 68.5785 19.884 67.9545 19.38C67.3545 18.852 66.8505 18.204 66.4425 17.436C66.0345 16.644 65.8305 15.78 65.8305 14.844C65.8305 13.14 66.4785 11.748 67.7745 10.668C69.0705 9.564 70.7025 9.012 72.6705 9.012C74.6385 9.012 76.0785 9.42 76.9905 10.236C77.9025 11.052 78.3585 11.976 78.3585 13.008C78.3585 14.016 78.1065 14.856 77.6025 15.528C77.0985 16.176 76.4505 16.5 75.6585 16.5C75.2745 16.5 74.8305 16.392 74.3265 16.176C74.9505 15.408 75.2625 14.58 75.2625 13.692C75.2625 12.804 74.9865 12.132 74.4345 11.676C73.9065 11.22 73.2345 10.992 72.4185 10.992ZM106.548 17.76L103.344 17.724C102.168 17.724 101.268 17.748 100.644 17.796C100.26 21.252 100.068 24.036 100.068 26.148C100.068 28.236 100.14 29.7 100.284 30.54C99.6596 30.588 99.3236 30.612 99.2756 30.612C98.1716 30.612 97.3436 30.372 96.7916 29.892C96.2636 29.412 95.9996 28.596 95.9996 27.444C95.9996 26.292 96.3476 23.256 97.0436 18.336C96.3716 18.504 95.7956 18.684 95.3156 18.876C95.2676 18.444 95.2436 18.096 95.2436 17.832C95.2436 16.368 95.9876 15.456 97.4756 15.096C98.0276 11.064 98.3276 7.86 98.3756 5.484C97.4396 5.484 96.8036 5.364 96.4676 5.124C96.1316 4.86 95.9636 4.368 95.9636 3.648C95.9636 2.904 96.0596 2.268 96.2516 1.74C98.7236 2.076 101.412 2.244 104.316 2.244C107.22 2.244 109.992 1.98 112.632 1.452C112.32 3.396 110.964 4.56 108.564 4.944C107.148 5.184 105 5.352 102.12 5.448C102.12 6.576 101.748 9.744 101.004 14.952C102.492 15 103.572 15.024 104.244 15.024C106.356 15.024 107.856 14.676 108.744 13.98C108.792 14.364 108.816 14.676 108.816 14.916C108.816 16.812 108.06 17.76 106.548 17.76ZM118.339 18.3C119.203 15.18 120.235 12.888 121.435 11.424C122.659 9.936 123.787 9.192 124.819 9.192C125.875 9.192 126.667 9.588 127.195 10.38C127.723 11.148 127.987 12.132 127.987 13.332C127.987 14.532 127.675 15.576 127.051 16.464C126.427 17.328 125.515 17.76 124.315 17.76C123.931 17.76 123.631 17.736 123.415 17.688C124.231 16.512 124.639 15.312 124.639 14.088C124.639 13.224 124.291 12.792 123.595 12.792C123.043 12.792 122.455 13.116 121.831 13.764C121.207 14.412 120.607 15.312 120.031 16.464C119.455 17.616 118.975 19.116 118.591 20.964C118.207 22.812 118.015 24.804 118.015 26.94C118.015 27.18 118.075 28.2 118.195 30C117.571 30.048 117.211 30.072 117.115 30.072C115.003 30.072 113.947 29.04 113.947 26.976C113.947 26.496 114.199 24.648 114.703 21.432C115.207 18.216 115.459 15.66 115.459 13.764C115.459 11.844 115.255 10.08 114.847 8.472C116.263 9.024 117.247 9.816 117.799 10.848C118.375 11.856 118.663 13.044 118.663 14.412C118.663 15.756 118.555 17.052 118.339 18.3ZM143.895 18.192C143.895 15.84 143.595 14.16 142.995 13.152C142.419 12.12 141.579 11.604 140.475 11.604C139.395 11.604 138.303 12.144 137.199 13.224C136.095 14.28 135.219 15.6 134.571 17.184C133.947 18.744 133.635 20.376 133.635 22.08C133.635 23.76 133.959 25.224 134.607 26.472C135.255 27.696 136.239 28.308 137.559 28.308C139.431 28.308 140.955 27.204 142.131 24.996C143.307 22.788 143.895 20.52 143.895 18.192ZM133.455 16.788C134.367 14.196 135.591 12.312 137.127 11.136C138.687 9.936 140.259 9.336 141.843 9.336C143.451 9.336 144.783 10.044 145.839 11.46C146.895 12.852 147.423 14.748 147.423 17.148C147.423 19.788 146.919 22.236 145.911 24.492C144.783 26.988 143.151 28.728 141.015 29.712C139.863 30.264 138.591 30.54 137.199 30.54C135.255 30.54 133.551 29.736 132.087 28.128C130.623 26.496 129.891 24.18 129.891 21.18C129.891 18.156 130.539 15.54 131.835 13.332C133.131 11.124 134.895 9.588 137.127 8.724C137.607 8.724 137.847 8.964 137.847 9.444C135.471 11.004 134.007 13.452 133.455 16.788ZM169.534 16.356C168.91 17.484 168.382 18.924 167.95 20.676C167.518 22.428 167.302 24.084 167.302 25.644C167.302 27.204 167.374 28.656 167.518 30C166.894 30.048 166.522 30.072 166.402 30.072C164.314 30.072 163.27 29.052 163.27 27.012C163.27 26.268 163.522 24.42 164.026 21.468C164.554 18.516 164.818 16.308 164.818 14.844C164.818 13.356 164.266 12.612 163.162 12.612C161.794 12.612 160.402 13.932 158.986 16.572C157.57 19.212 156.862 22.416 156.862 26.184C156.862 27.384 156.934 28.656 157.078 30C156.454 30.048 156.082 30.072 155.962 30.072C153.874 30.072 152.83 29.052 152.83 27.012C152.83 26.748 153.07 24.96 153.55 21.648C154.054 18.336 154.306 15.72 154.306 13.8C154.306 11.856 154.102 10.08 153.694 8.472C155.134 9.024 156.13 9.816 156.682 10.848C157.258 11.88 157.546 13.152 157.546 14.664C157.546 15.432 157.462 16.404 157.294 17.58C158.11 15.18 159.238 13.188 160.678 11.604C162.118 10.02 163.438 9.228 164.638 9.228C167.326 9.228 168.67 11.304 168.67 15.456C169.558 13.536 170.578 12.024 171.73 10.92C172.906 9.792 173.998 9.228 175.006 9.228C176.47 9.228 177.502 9.672 178.102 10.56C178.702 11.424 179.002 12.612 179.002 14.124C179.002 15.612 178.762 17.712 178.282 20.424C177.826 23.136 177.598 25.116 177.598 26.364C177.598 27.588 177.754 28.488 178.066 29.064C178.378 29.616 178.906 30.096 179.65 30.504C179.338 30.528 178.894 30.54 178.318 30.54C176.782 30.54 175.642 30.228 174.898 29.604C174.178 28.956 173.818 27.864 173.818 26.328C173.818 25.44 174.058 23.652 174.538 20.964C175.018 18.252 175.258 16.26 175.258 14.988C175.258 13.404 174.706 12.612 173.602 12.612C172.978 12.612 172.306 12.948 171.586 13.62C170.866 14.292 170.182 15.204 169.534 16.356ZM217.327 2.424C217.567 2.856 217.723 3.276 217.795 3.684C217.867 4.068 217.903 4.74 217.903 5.7C217.903 6.66 217.507 9.852 216.715 15.276C215.923 20.7 215.527 24.504 215.527 26.688C215.527 28.848 215.695 30.324 216.031 31.116C214.543 30.588 213.487 29.88 212.863 28.992C212.263 28.08 211.963 26.868 211.963 25.356C211.963 24.612 211.987 24.012 212.035 23.556C209.995 28.332 206.983 30.72 202.999 30.72C201.007 30.72 199.507 30.036 198.499 28.668C197.491 27.276 196.987 25.08 196.987 22.08C196.987 20.376 197.251 17.304 197.779 12.864C198.331 8.424 198.607 5.544 198.607 4.224C198.607 2.88 198.475 1.848 198.211 1.128C199.651 1.656 200.683 2.34 201.307 3.18C201.931 4.02 202.243 5.184 202.243 6.672C202.243 8.136 201.979 10.512 201.451 13.8C200.947 17.064 200.695 19.752 200.695 21.864C200.695 23.976 201.031 25.488 201.703 26.4C202.375 27.312 203.335 27.768 204.583 27.768C205.879 27.768 207.151 27.216 208.399 26.112C209.983 24.696 211.255 22.392 212.215 19.2C212.767 17.376 213.187 15.288 213.475 12.936C213.475 12.864 213.499 12.828 213.547 12.828C213.619 12.828 213.775 12.984 214.015 13.296C214.279 13.608 214.435 13.764 214.483 13.764L214.159 16.032C213.607 19.032 212.899 21.54 212.035 23.556C212.131 22.596 212.359 20.88 212.719 18.408C213.607 12.24 214.051 7.464 214.051 4.08C214.051 3.36 214.003 2.376 213.907 1.128C215.731 1.224 216.871 1.656 217.327 2.424ZM214.519 13.62L214.483 13.764C214.507 13.764 214.519 13.716 214.519 13.62ZM230.823 12.144C231.543 12.792 232.335 13.44 233.199 14.088C234.087 14.712 234.963 15.348 235.827 15.996C236.715 16.644 237.519 17.304 238.239 17.976C239.871 19.488 240.687 21.156 240.687 22.98C240.687 25.236 239.823 27.12 238.095 28.632C236.391 30.144 234.135 30.9 231.327 30.9C228.519 30.9 226.359 30.264 224.847 28.992C223.335 27.72 222.579 26.208 222.579 24.456C222.579 23.16 222.963 22.116 223.731 21.324C224.499 20.508 225.495 20.1 226.719 20.1C227.055 20.1 227.379 20.148 227.691 20.244C226.947 21.372 226.575 22.584 226.575 23.88C226.575 25.152 227.019 26.244 227.907 27.156C228.795 28.068 230.127 28.524 231.903 28.524C233.175 28.524 234.303 28.14 235.287 27.372C236.295 26.58 236.799 25.488 236.799 24.096C236.799 23.184 236.499 22.296 235.899 21.432C235.299 20.544 234.555 19.764 233.667 19.092C232.779 18.42 231.807 17.676 230.751 16.86C229.695 16.02 228.723 15.216 227.835 14.448C226.947 13.68 226.203 12.744 225.603 11.64C225.003 10.536 224.703 9.384 224.703 8.184C224.703 5.904 225.471 4.104 227.007 2.784C228.567 1.44 230.811 0.767999 233.739 0.767999C236.115 0.767999 237.975 1.404 239.319 2.676C240.687 3.924 241.371 5.232 241.371 6.6C241.371 7.944 240.999 9.048 240.255 9.912C239.535 10.776 238.539 11.208 237.267 11.208C236.835 11.208 236.415 11.16 236.007 11.064C237.183 9.816 237.771 8.496 237.771 7.104C237.771 5.712 237.339 4.668 236.475 3.972C235.611 3.252 234.507 2.892 233.163 2.892C231.843 2.892 230.715 3.276 229.779 4.044C228.843 4.812 228.375 5.976 228.375 7.536C228.375 9.096 229.191 10.632 230.823 12.144ZM243.492 28.416C243.492 27.96 244.152 26.268 245.472 23.34C246.792 20.388 248.316 17.016 250.044 13.224C251.796 9.408 252.984 6.684 253.608 5.052L254.4 3C254.016 2.424 253.596 1.908 253.14 1.452C253.884 1.164 254.592 1.02 255.264 1.02C256.776 1.02 257.952 1.98 258.792 3.9C259.32 5.124 260.028 7.86 260.916 12.108C260.94 12.156 260.976 12.312 261.024 12.576C261.072 12.84 261.312 14.064 261.744 16.248C262.2 18.408 262.512 19.848 262.68 20.568C262.848 21.264 263.136 22.344 263.544 23.808C264.192 26.28 265.008 28.2 265.992 29.568C264.864 30.24 263.928 30.576 263.184 30.576C262.464 30.576 261.936 30.36 261.6 29.928C261.288 29.472 260.988 28.788 260.7 27.876C260.436 26.94 259.86 24.36 258.972 20.136C258.444 20.952 257.388 21.384 255.804 21.432L249.396 21.684C248.028 25.38 247.032 28.548 246.408 31.188C244.464 30.372 243.492 29.448 243.492 28.416ZM255.66 6.204C252.9 12.756 251.136 17.016 250.368 18.984H258.72C257.592 13.488 256.572 9.228 255.66 6.204Z" fill="#99C8F2"/>
</svg>
