<svg width="213" height="41" viewBox="0 0 213 41" fill="none" xmlns="http://www.w3.org/2000/svg">
<path d="M22.9043 13.6602L22.7461 13.7305C21.832 12.8867 20.7305 12.2129 19.4414 11.709C18.1641 11.2051 16.7578 10.9531 15.2227 10.9531C13.7461 10.9531 12.3926 11.1875 11.1621 11.6562C9.93164 12.1133 8.87109 12.7812 7.98047 13.6602C7.10156 14.5391 6.41602 15.6172 5.92383 16.8945C5.43164 18.1719 5.18555 19.625 5.18555 21.2539C5.18555 23.0469 5.41992 24.7227 5.88867 26.2812C6.35742 27.8281 7.05469 29.1699 7.98047 30.3066C8.90625 31.4434 10.0605 32.3398 11.4434 32.9961C12.8379 33.6406 14.4609 33.9629 16.3125 33.9629C16.9805 33.9629 17.6484 33.8926 18.3164 33.752C18.9844 33.6113 19.623 33.4062 20.2324 33.1367C20.8535 32.8555 21.4336 32.5215 21.9727 32.1348C22.5234 31.7363 23.0215 31.2852 23.4668 30.7812L23.6602 30.9043L22.2539 34.4902C21.375 34.8301 20.4023 35.0879 19.3359 35.2637C18.2812 35.4512 17.2148 35.5449 16.1367 35.5449C13.9688 35.5449 11.9824 35.2344 10.1777 34.6133C8.38477 33.9805 6.83789 33.0898 5.53711 31.9414C4.24805 30.793 3.24023 29.416 2.51367 27.8105C1.79883 26.1934 1.44141 24.4004 1.44141 22.4316C1.44141 21.3184 1.58203 20.2227 1.86328 19.1445C2.15625 18.0664 2.57812 17.041 3.12891 16.0684C3.67969 15.0957 4.35938 14.2051 5.16797 13.3965C5.97656 12.5762 6.89648 11.8672 7.92773 11.2695C8.9707 10.6719 10.1133 10.209 11.3555 9.88086C12.6094 9.54102 13.9629 9.37109 15.416 9.37109C17.6777 9.37109 19.7754 9.7168 21.709 10.4082L22.9043 13.6602ZM30.2344 33.6289C31.3242 33.6289 32.3262 33.5879 33.2402 33.5059C34.166 33.4121 34.9746 33.3125 35.666 33.207C36.4746 33.0781 37.207 32.9316 37.8633 32.7676L37.459 35.1055C37.2949 35.0938 37.0137 35.0762 36.6152 35.0527C36.2285 35.041 35.8184 35.0293 35.3848 35.0176C34.9512 35.0176 34.5469 35.0117 34.1719 35C33.7969 35 33.5391 35 33.3984 35H26.666V34.9297C26.748 34.6836 26.8184 34.3672 26.877 33.9805C26.9473 33.5938 27 33.1191 27.0352 32.5566C27.082 31.9824 27.1172 31.3027 27.1406 30.5176C27.1641 29.7324 27.1758 28.8125 27.1758 27.7578V23.3281C27.1758 22.2734 27.1641 21.3594 27.1406 20.5859C27.1172 19.8008 27.082 19.127 27.0352 18.5645C27 17.9902 26.9473 17.5098 26.877 17.123C26.8184 16.7363 26.748 16.4199 26.666 16.1738V16.1035H30.7266V16.1738C30.6445 16.4199 30.5742 16.7363 30.5156 17.123C30.457 17.5098 30.4043 17.9902 30.3574 18.5645C30.3223 19.127 30.293 19.8008 30.2695 20.5859C30.2461 21.3594 30.2344 22.2734 30.2344 23.3281V33.6289ZM52.3828 29.0586C52.0664 29.0586 51.668 29.0586 51.1875 29.0586C50.7188 29.0586 50.2031 29.0586 49.6406 29.0586C49.0781 29.0586 48.498 29.0586 47.9004 29.0586C47.3027 29.0586 46.7344 29.0645 46.1953 29.0762C45.6562 29.0762 45.1641 29.082 44.7188 29.0938C44.2734 29.0938 43.9277 29.0938 43.6816 29.0938L43.0312 30.4648C42.75 31.0273 42.5098 31.5195 42.3105 31.9414C42.1113 32.3516 41.9473 32.7148 41.8184 33.0312C41.6895 33.3477 41.5957 33.623 41.5371 33.8574C41.4785 34.0801 41.4492 34.291 41.4492 34.4902C41.4492 34.6191 41.4551 34.7188 41.4668 34.7891C41.4785 34.8477 41.4961 34.8945 41.5195 34.9297V35H38.4258V34.9297C38.5078 34.8477 38.6367 34.6719 38.8125 34.4023C38.9883 34.1211 39.1875 33.7812 39.4102 33.3828C39.6445 32.9844 39.8906 32.5332 40.1484 32.0293C40.418 31.5254 40.6816 31.0039 40.9395 30.4648L48.1113 15.6641H49.4297L56.4609 30.4648C56.7305 31.0273 57 31.5664 57.2695 32.082C57.5508 32.5977 57.8086 33.0605 58.043 33.4707C58.2773 33.8691 58.4824 34.2031 58.6582 34.4727C58.834 34.7305 58.9512 34.8828 59.0098 34.9297V35H54.5098C54.5332 34.9062 54.5449 34.8242 54.5449 34.7539C54.5449 34.6719 54.5449 34.584 54.5449 34.4902C54.5449 34.2324 54.4863 33.9219 54.3691 33.5586C54.2637 33.1953 54.1289 32.8262 53.9648 32.4512C53.8125 32.0645 53.6484 31.6953 53.4727 31.3438C53.3086 30.9922 53.1738 30.6992 53.0684 30.4648L52.3828 29.0586ZM44.3672 27.6875H45.4395C45.9316 27.6875 46.4531 27.6875 47.0039 27.6875C47.5664 27.6758 48.1289 27.6699 48.6914 27.6699C49.2539 27.6699 49.7988 27.6699 50.3262 27.6699C50.8535 27.6582 51.3281 27.6523 51.75 27.6523L48.1113 19.8828L44.3672 27.6875ZM69.7148 19.7773H69.3633C69.293 19.5781 69.1758 19.3262 69.0117 19.0215C68.8594 18.7168 68.6484 18.418 68.3789 18.125C68.1211 17.832 67.7988 17.5859 67.4121 17.3867C67.0254 17.1758 66.5625 17.0703 66.0234 17.0703C65.6133 17.0703 65.2441 17.1406 64.916 17.2812C64.5996 17.4102 64.3301 17.5918 64.1074 17.8262C63.8848 18.0605 63.7148 18.3418 63.5977 18.6699C63.4805 18.9863 63.4219 19.332 63.4219 19.707C63.4219 20.3164 63.6035 20.8965 63.9668 21.4473C64.3418 21.998 64.8047 22.5488 65.3555 23.0996C65.9062 23.6387 66.5039 24.1836 67.1484 24.7344C67.793 25.2852 68.3906 25.8594 68.9414 26.457C69.4922 27.0547 69.9492 27.6875 70.3125 28.3555C70.6875 29.0234 70.875 29.7383 70.875 30.5C70.875 31.0625 70.7695 31.6426 70.5586 32.2402C70.3594 32.8379 70.0312 33.377 69.5742 33.8574C69.1172 34.3379 68.5312 34.7305 67.8164 35.0352C67.1016 35.3516 66.2344 35.5098 65.2148 35.5098C64.6523 35.5098 64.1133 35.4629 63.5977 35.3691C63.0938 35.2754 62.625 35.1582 62.1914 35.0176C61.7695 34.8887 61.3887 34.748 61.0488 34.5957C60.7207 34.4316 60.4453 34.2793 60.2227 34.1387L60.5391 30.8164H60.9082C61.0254 31.2266 61.1953 31.6367 61.418 32.0469C61.6523 32.457 61.9336 32.832 62.2617 33.1719C62.6016 33.5 62.9941 33.7695 63.4395 33.9805C63.8965 34.1797 64.418 34.2793 65.0039 34.2793C65.4141 34.2793 65.8008 34.2148 66.1641 34.0859C66.5273 33.9453 66.8379 33.752 67.0957 33.5059C67.3652 33.2598 67.5762 32.9609 67.7285 32.6094C67.8809 32.2461 67.957 31.8418 67.957 31.3965C67.957 30.8691 67.8516 30.3828 67.6406 29.9375C67.4297 29.4805 67.1484 29.0469 66.7969 28.6367C66.4453 28.2148 66.0469 27.8105 65.6016 27.4238C65.168 27.0371 64.7168 26.6445 64.248 26.2461C63.7793 25.8477 63.3223 25.4434 62.877 25.0332C62.4434 24.6113 62.0508 24.1602 61.6992 23.6797C61.3477 23.1992 61.0664 22.6895 60.8555 22.1504C60.6445 21.5996 60.5391 20.9961 60.5391 20.3398C60.5391 19.6484 60.6855 19.0273 60.9785 18.4766C61.2715 17.9258 61.6582 17.4629 62.1387 17.0879C62.6191 16.7012 63.1699 16.4082 63.791 16.209C64.4121 15.998 65.0566 15.8926 65.7246 15.8926C66.2168 15.8926 66.6738 15.9277 67.0957 15.998C67.5293 16.0684 67.916 16.1562 68.2559 16.2617C68.6074 16.3555 68.9121 16.4551 69.1699 16.5605C69.4277 16.6543 69.6387 16.7305 69.8027 16.7891L69.7148 19.7773ZM83.1094 19.7773H82.7578C82.6875 19.5781 82.5703 19.3262 82.4062 19.0215C82.2539 18.7168 82.043 18.418 81.7734 18.125C81.5156 17.832 81.1934 17.5859 80.8066 17.3867C80.4199 17.1758 79.957 17.0703 79.418 17.0703C79.0078 17.0703 78.6387 17.1406 78.3105 17.2812C77.9941 17.4102 77.7246 17.5918 77.502 17.8262C77.2793 18.0605 77.1094 18.3418 76.9922 18.6699C76.875 18.9863 76.8164 19.332 76.8164 19.707C76.8164 20.3164 76.998 20.8965 77.3613 21.4473C77.7363 21.998 78.1992 22.5488 78.75 23.0996C79.3008 23.6387 79.8984 24.1836 80.543 24.7344C81.1875 25.2852 81.7852 25.8594 82.3359 26.457C82.8867 27.0547 83.3438 27.6875 83.707 28.3555C84.082 29.0234 84.2695 29.7383 84.2695 30.5C84.2695 31.0625 84.1641 31.6426 83.9531 32.2402C83.7539 32.8379 83.4258 33.377 82.9688 33.8574C82.5117 34.3379 81.9258 34.7305 81.2109 35.0352C80.4961 35.3516 79.6289 35.5098 78.6094 35.5098C78.0469 35.5098 77.5078 35.4629 76.9922 35.3691C76.4883 35.2754 76.0195 35.1582 75.5859 35.0176C75.1641 34.8887 74.7832 34.748 74.4434 34.5957C74.1152 34.4316 73.8398 34.2793 73.6172 34.1387L73.9336 30.8164H74.3027C74.4199 31.2266 74.5898 31.6367 74.8125 32.0469C75.0469 32.457 75.3281 32.832 75.6562 33.1719C75.9961 33.5 76.3887 33.7695 76.834 33.9805C77.291 34.1797 77.8125 34.2793 78.3984 34.2793C78.8086 34.2793 79.1953 34.2148 79.5586 34.0859C79.9219 33.9453 80.2324 33.752 80.4902 33.5059C80.7598 33.2598 80.9707 32.9609 81.123 32.6094C81.2754 32.2461 81.3516 31.8418 81.3516 31.3965C81.3516 30.8691 81.2461 30.3828 81.0352 29.9375C80.8242 29.4805 80.543 29.0469 80.1914 28.6367C79.8398 28.2148 79.4414 27.8105 78.9961 27.4238C78.5625 27.0371 78.1113 26.6445 77.6426 26.2461C77.1738 25.8477 76.7168 25.4434 76.2715 25.0332C75.8379 24.6113 75.4453 24.1602 75.0938 23.6797C74.7422 23.1992 74.4609 22.6895 74.25 22.1504C74.0391 21.5996 73.9336 20.9961 73.9336 20.3398C73.9336 19.6484 74.0801 19.0273 74.373 18.4766C74.666 17.9258 75.0527 17.4629 75.5332 17.0879C76.0137 16.7012 76.5645 16.4082 77.1855 16.209C77.8066 15.998 78.4512 15.8926 79.1191 15.8926C79.6113 15.8926 80.0684 15.9277 80.4902 15.998C80.9238 16.0684 81.3105 16.1562 81.6504 16.2617C82.002 16.3555 82.3066 16.4551 82.5645 16.5605C82.8223 16.6543 83.0332 16.7305 83.1973 16.7891L83.1094 19.7773ZM88.5938 23.3281C88.5938 22.2734 88.582 21.3594 88.5586 20.5859C88.5352 19.8008 88.5 19.127 88.4531 18.5645C88.418 17.9902 88.3652 17.5098 88.2949 17.123C88.2363 16.7363 88.166 16.4199 88.084 16.1738V16.1035H92.1621V16.1738C92.0801 16.4199 92.0039 16.7363 91.9336 17.123C91.875 17.5098 91.8223 17.9902 91.7754 18.5645C91.7402 19.127 91.7109 19.8008 91.6875 20.5859C91.6641 21.3594 91.6523 22.2734 91.6523 23.3281V27.7578C91.6523 28.8125 91.6641 29.7324 91.6875 30.5176C91.7109 31.3027 91.7402 31.9824 91.7754 32.5566C91.8223 33.1191 91.875 33.5938 91.9336 33.9805C92.0039 34.3672 92.0801 34.6836 92.1621 34.9297V35H88.084V34.9297C88.166 34.6836 88.2363 34.3672 88.2949 33.9805C88.3652 33.5938 88.418 33.1191 88.4531 32.5566C88.5 31.9824 88.5352 31.3027 88.5586 30.5176C88.582 29.7324 88.5938 28.8125 88.5938 27.7578V23.3281ZM112.922 31.0801L111.551 34.3496C111.211 34.502 110.824 34.6426 110.391 34.7715C109.969 34.8887 109.529 34.9883 109.072 35.0703C108.615 35.1523 108.146 35.2109 107.666 35.2461C107.197 35.293 106.752 35.3164 106.33 35.3164C104.854 35.3164 103.482 35.0996 102.217 34.666C100.963 34.2324 99.8789 33.5996 98.9648 32.7676C98.0508 31.9238 97.3359 30.8926 96.8203 29.6738C96.3047 28.4551 96.0469 27.0605 96.0469 25.4902C96.0469 24.1074 96.3164 22.8242 96.8555 21.6406C97.3945 20.457 98.1387 19.4316 99.0879 18.5645C100.037 17.6855 101.156 17 102.445 16.5078C103.746 16.0156 105.152 15.7695 106.664 15.7695C107.004 15.7695 107.361 15.7871 107.736 15.8223C108.123 15.8457 108.504 15.8867 108.879 15.9453C109.254 16.0039 109.617 16.0742 109.969 16.1562C110.32 16.2266 110.648 16.3027 110.953 16.3848L112.271 19.5488L112.061 19.6719C111.744 19.2852 111.363 18.9277 110.918 18.5996C110.484 18.2715 110.004 17.9961 109.477 17.7734C108.961 17.5391 108.416 17.3574 107.842 17.2285C107.268 17.0996 106.682 17.0352 106.084 17.0352C105.111 17.0352 104.221 17.2051 103.412 17.5449C102.615 17.8848 101.93 18.3828 101.355 19.0391C100.793 19.6836 100.354 20.4746 100.037 21.4121C99.7207 22.3496 99.5625 23.4102 99.5625 24.5938C99.5625 25.9297 99.7148 27.1777 100.02 28.3379C100.324 29.4863 100.781 30.4883 101.391 31.3438C102 32.1875 102.762 32.8555 103.676 33.3477C104.59 33.8281 105.656 34.0684 106.875 34.0684C107.461 34.0684 108.035 33.998 108.598 33.8574C109.172 33.7051 109.711 33.4941 110.215 33.2246C110.73 32.9551 111.199 32.6328 111.621 32.2578C112.043 31.8711 112.406 31.4434 112.711 30.9746L112.922 31.0801ZM147.182 13.6602L147.023 13.7305C146.109 12.8867 145.008 12.2129 143.719 11.709C142.441 11.2051 141.035 10.9531 139.5 10.9531C138.023 10.9531 136.67 11.1875 135.439 11.6562C134.209 12.1133 133.148 12.7812 132.258 13.6602C131.379 14.5391 130.693 15.6172 130.201 16.8945C129.709 18.1719 129.463 19.625 129.463 21.2539C129.463 23.0469 129.697 24.7227 130.166 26.2812C130.635 27.8281 131.332 29.1699 132.258 30.3066C133.184 31.4434 134.338 32.3398 135.721 32.9961C137.115 33.6406 138.738 33.9629 140.59 33.9629C141.258 33.9629 141.926 33.8926 142.594 33.752C143.262 33.6113 143.9 33.4062 144.51 33.1367C145.131 32.8555 145.711 32.5215 146.25 32.1348C146.801 31.7363 147.299 31.2852 147.744 30.7812L147.938 30.9043L146.531 34.4902C145.652 34.8301 144.68 35.0879 143.613 35.2637C142.559 35.4512 141.492 35.5449 140.414 35.5449C138.246 35.5449 136.26 35.2344 134.455 34.6133C132.662 33.9805 131.115 33.0898 129.814 31.9414C128.525 30.793 127.518 29.416 126.791 27.8105C126.076 26.1934 125.719 24.4004 125.719 22.4316C125.719 21.3184 125.859 20.2227 126.141 19.1445C126.434 18.0664 126.855 17.041 127.406 16.0684C127.957 15.0957 128.637 14.2051 129.445 13.3965C130.254 12.5762 131.174 11.8672 132.205 11.2695C133.248 10.6719 134.391 10.209 135.633 9.88086C136.887 9.54102 138.24 9.37109 139.693 9.37109C141.955 9.37109 144.053 9.7168 145.986 10.4082L147.182 13.6602ZM162.422 29.0586C162.105 29.0586 161.707 29.0586 161.227 29.0586C160.758 29.0586 160.242 29.0586 159.68 29.0586C159.117 29.0586 158.537 29.0586 157.939 29.0586C157.342 29.0586 156.773 29.0645 156.234 29.0762C155.695 29.0762 155.203 29.082 154.758 29.0938C154.312 29.0938 153.967 29.0938 153.721 29.0938L153.07 30.4648C152.789 31.0273 152.549 31.5195 152.35 31.9414C152.15 32.3516 151.986 32.7148 151.857 33.0312C151.729 33.3477 151.635 33.623 151.576 33.8574C151.518 34.0801 151.488 34.291 151.488 34.4902C151.488 34.6191 151.494 34.7188 151.506 34.7891C151.518 34.8477 151.535 34.8945 151.559 34.9297V35H148.465V34.9297C148.547 34.8477 148.676 34.6719 148.852 34.4023C149.027 34.1211 149.227 33.7812 149.449 33.3828C149.684 32.9844 149.93 32.5332 150.188 32.0293C150.457 31.5254 150.721 31.0039 150.979 30.4648L158.15 15.6641H159.469L166.5 30.4648C166.77 31.0273 167.039 31.5664 167.309 32.082C167.59 32.5977 167.848 33.0605 168.082 33.4707C168.316 33.8691 168.521 34.2031 168.697 34.4727C168.873 34.7305 168.99 34.8828 169.049 34.9297V35H164.549C164.572 34.9062 164.584 34.8242 164.584 34.7539C164.584 34.6719 164.584 34.584 164.584 34.4902C164.584 34.2324 164.525 33.9219 164.408 33.5586C164.303 33.1953 164.168 32.8262 164.004 32.4512C163.852 32.0645 163.688 31.6953 163.512 31.3438C163.348 30.9922 163.213 30.6992 163.107 30.4648L162.422 29.0586ZM154.406 27.6875H155.479C155.971 27.6875 156.492 27.6875 157.043 27.6875C157.605 27.6758 158.168 27.6699 158.73 27.6699C159.293 27.6699 159.838 27.6699 160.365 27.6699C160.893 27.6582 161.367 27.6523 161.789 27.6523L158.15 19.8828L154.406 27.6875ZM174.762 25.8242C174.996 25.8594 175.23 25.8887 175.465 25.9121C175.711 25.9238 175.945 25.9297 176.168 25.9297C177.633 25.9297 178.74 25.5371 179.49 24.752C180.252 23.9668 180.633 22.7891 180.633 21.2188C180.633 19.9297 180.328 18.9102 179.719 18.1602C179.121 17.4102 178.236 17.0352 177.064 17.0352C176.689 17.0352 176.355 17.0527 176.062 17.0879C175.781 17.1113 175.541 17.1406 175.342 17.1758C175.119 17.2227 174.926 17.2695 174.762 17.3164V25.8242ZM177.451 26.9668C177.217 27.002 176.982 27.0254 176.748 27.0371C176.525 27.0371 176.297 27.0371 176.062 27.0371C175.875 27.0371 175.67 27.0312 175.447 27.0195C175.225 27.0078 174.996 26.9902 174.762 26.9668V27.8281C174.762 28.8711 174.773 29.7852 174.797 30.5703C174.82 31.3438 174.85 32.0117 174.885 32.5742C174.932 33.1367 174.984 33.6113 175.043 33.998C175.102 34.373 175.172 34.6836 175.254 34.9297V35H171.193V34.9297C171.275 34.6836 171.346 34.3672 171.404 33.9805C171.475 33.5938 171.527 33.1191 171.562 32.5566C171.609 31.9824 171.645 31.3027 171.668 30.5176C171.691 29.7324 171.703 28.8125 171.703 27.7578V23.3281C171.703 22.2734 171.691 21.3594 171.668 20.5859C171.645 19.8008 171.609 19.127 171.562 18.5645C171.527 17.9902 171.475 17.5098 171.404 17.123C171.346 16.7363 171.275 16.4199 171.193 16.1738V16.1035C171.381 16.1152 171.58 16.127 171.791 16.1387C171.967 16.1504 172.16 16.1621 172.371 16.1738C172.594 16.1738 172.816 16.1738 173.039 16.1738C173.414 16.1738 173.971 16.1387 174.709 16.0684C175.447 15.998 176.314 15.9629 177.311 15.9629C178.318 15.9629 179.232 16.0859 180.053 16.332C180.885 16.5781 181.594 16.9297 182.18 17.3867C182.777 17.8438 183.234 18.4004 183.551 19.0566C183.879 19.7129 184.043 20.4453 184.043 21.2539C184.043 21.8867 183.955 22.4668 183.779 22.9941C183.604 23.5098 183.357 23.9785 183.041 24.4004C182.725 24.8105 182.35 25.1738 181.916 25.4902C181.482 25.8066 181.002 26.082 180.475 26.3164L184.148 31.502C184.465 31.9238 184.781 32.3281 185.098 32.7148C185.426 33.1016 185.736 33.4473 186.029 33.752C186.322 34.0566 186.598 34.3145 186.855 34.5254C187.113 34.7246 187.33 34.8594 187.506 34.9297V35H182.9C182.9 34.8945 182.824 34.7129 182.672 34.4551C182.531 34.1855 182.361 33.9102 182.162 33.6289C181.975 33.3359 181.781 33.0547 181.582 32.7852C181.395 32.5156 181.254 32.3164 181.16 32.1875L177.451 26.9668ZM197.719 19.7773H197.367C197.297 19.5781 197.18 19.3262 197.016 19.0215C196.863 18.7168 196.652 18.418 196.383 18.125C196.125 17.832 195.803 17.5859 195.416 17.3867C195.029 17.1758 194.566 17.0703 194.027 17.0703C193.617 17.0703 193.248 17.1406 192.92 17.2812C192.604 17.4102 192.334 17.5918 192.111 17.8262C191.889 18.0605 191.719 18.3418 191.602 18.6699C191.484 18.9863 191.426 19.332 191.426 19.707C191.426 20.3164 191.607 20.8965 191.971 21.4473C192.346 21.998 192.809 22.5488 193.359 23.0996C193.91 23.6387 194.508 24.1836 195.152 24.7344C195.797 25.2852 196.395 25.8594 196.945 26.457C197.496 27.0547 197.953 27.6875 198.316 28.3555C198.691 29.0234 198.879 29.7383 198.879 30.5C198.879 31.0625 198.773 31.6426 198.562 32.2402C198.363 32.8379 198.035 33.377 197.578 33.8574C197.121 34.3379 196.535 34.7305 195.82 35.0352C195.105 35.3516 194.238 35.5098 193.219 35.5098C192.656 35.5098 192.117 35.4629 191.602 35.3691C191.098 35.2754 190.629 35.1582 190.195 35.0176C189.773 34.8887 189.393 34.748 189.053 34.5957C188.725 34.4316 188.449 34.2793 188.227 34.1387L188.543 30.8164H188.912C189.029 31.2266 189.199 31.6367 189.422 32.0469C189.656 32.457 189.938 32.832 190.266 33.1719C190.605 33.5 190.998 33.7695 191.443 33.9805C191.9 34.1797 192.422 34.2793 193.008 34.2793C193.418 34.2793 193.805 34.2148 194.168 34.0859C194.531 33.9453 194.842 33.752 195.1 33.5059C195.369 33.2598 195.58 32.9609 195.732 32.6094C195.885 32.2461 195.961 31.8418 195.961 31.3965C195.961 30.8691 195.855 30.3828 195.645 29.9375C195.434 29.4805 195.152 29.0469 194.801 28.6367C194.449 28.2148 194.051 27.8105 193.605 27.4238C193.172 27.0371 192.721 26.6445 192.252 26.2461C191.783 25.8477 191.326 25.4434 190.881 25.0332C190.447 24.6113 190.055 24.1602 189.703 23.6797C189.352 23.1992 189.07 22.6895 188.859 22.1504C188.648 21.5996 188.543 20.9961 188.543 20.3398C188.543 19.6484 188.689 19.0273 188.982 18.4766C189.275 17.9258 189.662 17.4629 190.143 17.0879C190.623 16.7012 191.174 16.4082 191.795 16.209C192.416 15.998 193.061 15.8926 193.729 15.8926C194.221 15.8926 194.678 15.9277 195.1 15.998C195.533 16.0684 195.92 16.1562 196.26 16.2617C196.611 16.3555 196.916 16.4551 197.174 16.5605C197.432 16.6543 197.643 16.7305 197.807 16.7891L197.719 19.7773Z" fill="#FDECEC"/>
</svg>
