<svg width="214" height="50" viewBox="0 0 214 50" fill="none" xmlns="http://www.w3.org/2000/svg">
<path d="M86.7559 36.543C86.7559 36.6367 86.7324 36.7188 86.6855 36.7891C86.6387 36.8594 86.5566 36.918 86.4395 36.9648C86.3223 37 86.1699 37.0293 85.9824 37.0527C85.8066 37.0879 85.5723 37.1055 85.2793 37.1055C85.0098 37.1055 84.7754 37.0879 84.5762 37.0527C84.3887 37.0293 84.2363 37 84.1191 36.9648C84.0137 36.918 83.9375 36.8594 83.8906 36.7891C83.8438 36.7188 83.8203 36.6367 83.8203 36.543V16.7324H83.7852L75.6816 36.6309C75.6465 36.7129 75.5938 36.7832 75.5234 36.8418C75.4648 36.9004 75.3711 36.9531 75.2422 37C75.125 37.0352 74.9785 37.0586 74.8027 37.0703C74.6387 37.0938 74.4395 37.1055 74.2051 37.1055C73.959 37.1055 73.748 37.0938 73.5723 37.0703C73.3965 37.0469 73.25 37.0176 73.1328 36.9824C73.0156 36.9355 72.9219 36.8828 72.8516 36.8242C72.793 36.7656 72.752 36.7012 72.7285 36.6309L64.9766 16.7324H64.959V36.543C64.959 36.6367 64.9355 36.7188 64.8887 36.7891C64.8418 36.8594 64.7598 36.918 64.6426 36.9648C64.5254 37 64.373 37.0293 64.1855 37.0527C63.998 37.0879 63.7578 37.1055 63.4648 37.1055C63.1836 37.1055 62.9492 37.0879 62.7617 37.0527C62.5742 37.0293 62.4219 37 62.3047 36.9648C62.1992 36.918 62.123 36.8594 62.0762 36.7891C62.041 36.7188 62.0234 36.6367 62.0234 36.543V15.625C62.0234 15.1328 62.1523 14.7812 62.4102 14.5703C62.668 14.3594 62.9551 14.2539 63.2715 14.2539H65.0996C65.4746 14.2539 65.8027 14.2891 66.084 14.3594C66.3652 14.4297 66.6113 14.541 66.8223 14.6934C67.0332 14.8457 67.209 15.0391 67.3496 15.2734C67.4902 15.5078 67.6133 15.7832 67.7188 16.0996L74.3105 32.5703H74.3984L81.2539 16.1523C81.3828 15.8008 81.5234 15.502 81.6758 15.2559C81.8281 15.0098 81.9922 14.8164 82.168 14.6758C82.3555 14.5234 82.5605 14.418 82.7832 14.3594C83.0059 14.2891 83.2637 14.2539 83.5566 14.2539H85.4727C85.6484 14.2539 85.8125 14.2832 85.9648 14.3418C86.1289 14.3887 86.2637 14.4707 86.3691 14.5879C86.4863 14.6934 86.5801 14.834 86.6504 15.0098C86.7207 15.1738 86.7559 15.3789 86.7559 15.625V36.543ZM107.199 28.4746C107.199 29.7637 107.029 30.9531 106.689 32.043C106.35 33.1211 105.84 34.0527 105.16 34.8379C104.492 35.623 103.648 36.2383 102.629 36.6836C101.621 37.1172 100.449 37.334 99.1133 37.334C97.8125 37.334 96.6758 37.1406 95.7031 36.7539C94.7422 36.3672 93.9395 35.8047 93.2949 35.0664C92.6504 34.3281 92.1699 33.4316 91.8535 32.377C91.5371 31.3223 91.3789 30.127 91.3789 28.791C91.3789 27.502 91.543 26.3184 91.8711 25.2402C92.2109 24.1504 92.7148 23.2129 93.3828 22.4277C94.0625 21.6426 94.9062 21.0332 95.9141 20.5996C96.9219 20.166 98.0996 19.9492 99.4473 19.9492C100.748 19.9492 101.879 20.1426 102.84 20.5293C103.812 20.916 104.621 21.4785 105.266 22.2168C105.91 22.9551 106.391 23.8516 106.707 24.9062C107.035 25.9609 107.199 27.1504 107.199 28.4746ZM104.141 28.668C104.141 27.8125 104.059 27.0039 103.895 26.2422C103.742 25.4805 103.484 24.8125 103.121 24.2383C102.758 23.6641 102.266 23.2129 101.645 22.8848C101.023 22.5449 100.25 22.375 99.3242 22.375C98.4688 22.375 97.7305 22.5273 97.1094 22.832C96.5 23.1367 95.9961 23.5703 95.5977 24.1328C95.1992 24.6836 94.9004 25.3398 94.7012 26.1016C94.5137 26.8633 94.4199 27.6953 94.4199 28.5977C94.4199 29.4648 94.4961 30.2793 94.6484 31.041C94.8125 31.8027 95.0762 32.4707 95.4395 33.0449C95.8145 33.6074 96.3125 34.0586 96.9336 34.3984C97.5547 34.7266 98.3281 34.8906 99.2539 34.8906C100.098 34.8906 100.83 34.7383 101.451 34.4336C102.072 34.1289 102.582 33.7012 102.98 33.1504C103.379 32.5996 103.672 31.9434 103.859 31.1816C104.047 30.4199 104.141 29.582 104.141 28.668ZM126.025 28.4395C126.025 29.8105 125.873 31.0469 125.568 32.1484C125.275 33.2383 124.836 34.1699 124.25 34.9434C123.676 35.7168 122.967 36.3086 122.123 36.7188C121.279 37.1289 120.312 37.334 119.223 37.334C118.719 37.334 118.25 37.2812 117.816 37.1758C117.395 37.082 116.979 36.9238 116.568 36.7012C116.158 36.4785 115.748 36.1973 115.338 35.8574C114.928 35.5176 114.494 35.1074 114.037 34.627V36.5605C114.037 36.6543 114.014 36.7363 113.967 36.8066C113.92 36.877 113.844 36.9355 113.738 36.9824C113.633 37.0176 113.498 37.0469 113.334 37.0703C113.182 37.0938 112.982 37.1055 112.736 37.1055C112.502 37.1055 112.303 37.0938 112.139 37.0703C111.975 37.0469 111.84 37.0176 111.734 36.9824C111.629 36.9355 111.559 36.877 111.523 36.8066C111.488 36.7363 111.471 36.6543 111.471 36.5605V13.0762C111.471 12.9824 111.488 12.9004 111.523 12.8301C111.57 12.7598 111.646 12.7012 111.752 12.6543C111.869 12.6074 112.021 12.5723 112.209 12.5488C112.396 12.5254 112.631 12.5137 112.912 12.5137C113.205 12.5137 113.445 12.5254 113.633 12.5488C113.82 12.5723 113.967 12.6074 114.072 12.6543C114.178 12.7012 114.254 12.7598 114.301 12.8301C114.348 12.9004 114.371 12.9824 114.371 13.0762V22.5508C114.84 22.0703 115.291 21.666 115.725 21.3379C116.17 21.0098 116.604 20.7461 117.025 20.5469C117.447 20.3359 117.869 20.1836 118.291 20.0898C118.713 19.9961 119.158 19.9492 119.627 19.9492C120.775 19.9492 121.754 20.1777 122.562 20.6348C123.383 21.0918 124.045 21.707 124.549 22.4805C125.064 23.2422 125.439 24.1387 125.674 25.1699C125.908 26.2012 126.025 27.291 126.025 28.4395ZM122.967 28.7734C122.967 27.9648 122.902 27.1797 122.773 26.418C122.656 25.6562 122.445 24.9824 122.141 24.3965C121.836 23.8105 121.432 23.3418 120.928 22.9902C120.424 22.627 119.797 22.4453 119.047 22.4453C118.672 22.4453 118.303 22.498 117.939 22.6035C117.576 22.709 117.207 22.8848 116.832 23.1309C116.457 23.377 116.064 23.6934 115.654 24.0801C115.256 24.4668 114.828 24.9531 114.371 25.5391V31.8496C115.168 32.8223 115.93 33.5664 116.656 34.082C117.383 34.5859 118.139 34.8379 118.924 34.8379C119.65 34.8379 120.271 34.6621 120.787 34.3105C121.303 33.959 121.719 33.4961 122.035 32.9219C122.363 32.3359 122.598 31.6855 122.738 30.9707C122.891 30.2441 122.967 29.5117 122.967 28.7734ZM133.285 36.5605C133.285 36.6543 133.262 36.7363 133.215 36.8066C133.168 36.8652 133.092 36.918 132.986 36.9648C132.881 37.0117 132.734 37.0469 132.547 37.0703C132.359 37.0938 132.119 37.1055 131.826 37.1055C131.545 37.1055 131.311 37.0938 131.123 37.0703C130.936 37.0469 130.783 37.0117 130.666 36.9648C130.561 36.918 130.484 36.8652 130.438 36.8066C130.402 36.7363 130.385 36.6543 130.385 36.5605V20.7402C130.385 20.6582 130.402 20.582 130.438 20.5117C130.484 20.4414 130.561 20.3828 130.666 20.3359C130.783 20.2891 130.936 20.2539 131.123 20.2305C131.311 20.207 131.545 20.1953 131.826 20.1953C132.119 20.1953 132.359 20.207 132.547 20.2305C132.734 20.2539 132.881 20.2891 132.986 20.3359C133.092 20.3828 133.168 20.4414 133.215 20.5117C133.262 20.582 133.285 20.6582 133.285 20.7402V36.5605ZM133.619 15.3965C133.619 16.0762 133.49 16.5391 133.232 16.7852C132.975 17.0312 132.5 17.1543 131.809 17.1543C131.129 17.1543 130.66 17.0371 130.402 16.8027C130.156 16.5566 130.033 16.0996 130.033 15.4316C130.033 14.752 130.162 14.2891 130.42 14.043C130.678 13.7969 131.152 13.6738 131.844 13.6738C132.523 13.6738 132.986 13.7969 133.232 14.043C133.49 14.2773 133.619 14.7285 133.619 15.3965ZM141.547 36.5605C141.547 36.6543 141.523 36.7363 141.477 36.8066C141.43 36.8652 141.354 36.918 141.248 36.9648C141.143 37.0117 140.996 37.0469 140.809 37.0703C140.621 37.0938 140.381 37.1055 140.088 37.1055C139.807 37.1055 139.572 37.0938 139.385 37.0703C139.197 37.0469 139.045 37.0117 138.928 36.9648C138.822 36.918 138.746 36.8652 138.699 36.8066C138.664 36.7363 138.646 36.6543 138.646 36.5605V13.0762C138.646 12.9824 138.664 12.9004 138.699 12.8301C138.746 12.7598 138.822 12.7012 138.928 12.6543C139.045 12.6074 139.197 12.5723 139.385 12.5488C139.572 12.5254 139.807 12.5137 140.088 12.5137C140.381 12.5137 140.621 12.5254 140.809 12.5488C140.996 12.5723 141.143 12.6074 141.248 12.6543C141.354 12.7012 141.43 12.7598 141.477 12.8301C141.523 12.9004 141.547 12.9824 141.547 13.0762V36.5605ZM160.408 27.9648C160.408 28.4219 160.291 28.75 160.057 28.9492C159.834 29.1367 159.576 29.2305 159.283 29.2305H148.912C148.912 30.1094 149 30.9004 149.176 31.6035C149.352 32.3066 149.645 32.9102 150.055 33.4141C150.465 33.918 150.998 34.3047 151.654 34.5742C152.311 34.8438 153.113 34.9785 154.062 34.9785C154.812 34.9785 155.48 34.9199 156.066 34.8027C156.652 34.6738 157.156 34.5332 157.578 34.3809C158.012 34.2285 158.363 34.0938 158.633 33.9766C158.914 33.8477 159.125 33.7832 159.266 33.7832C159.348 33.7832 159.418 33.8066 159.477 33.8535C159.547 33.8887 159.6 33.9473 159.635 34.0293C159.67 34.1113 159.693 34.2285 159.705 34.3809C159.729 34.5215 159.74 34.6973 159.74 34.9082C159.74 35.0605 159.734 35.1953 159.723 35.3125C159.711 35.418 159.693 35.5176 159.67 35.6113C159.658 35.6934 159.629 35.7695 159.582 35.8398C159.547 35.9102 159.494 35.9805 159.424 36.0508C159.365 36.1094 159.178 36.2148 158.861 36.3672C158.545 36.5078 158.135 36.6484 157.631 36.7891C157.127 36.9297 156.541 37.0527 155.873 37.1582C155.217 37.2754 154.514 37.334 153.764 37.334C152.463 37.334 151.32 37.1523 150.336 36.7891C149.363 36.4258 148.543 35.8867 147.875 35.1719C147.207 34.457 146.703 33.5605 146.363 32.4824C146.023 31.4043 145.854 30.1504 145.854 28.7207C145.854 27.3613 146.029 26.1426 146.381 25.0645C146.732 23.9746 147.236 23.0547 147.893 22.3047C148.561 21.543 149.363 20.9629 150.301 20.5645C151.238 20.1543 152.287 19.9492 153.447 19.9492C154.689 19.9492 155.744 20.1484 156.611 20.5469C157.49 20.9453 158.211 21.4844 158.773 22.1641C159.336 22.832 159.746 23.623 160.004 24.5371C160.273 25.4395 160.408 26.4062 160.408 27.4375V27.9648ZM157.49 27.1035C157.525 25.5801 157.186 24.3848 156.471 23.5176C155.768 22.6504 154.719 22.2168 153.324 22.2168C152.609 22.2168 151.982 22.3516 151.443 22.6211C150.904 22.8906 150.453 23.248 150.09 23.6934C149.727 24.1387 149.445 24.6602 149.246 25.2578C149.047 25.8438 148.936 26.459 148.912 27.1035H157.49ZM190.818 25.293C190.818 27.2617 190.566 28.9844 190.062 30.4609C189.559 31.9258 188.82 33.1445 187.848 34.1172C186.887 35.0781 185.703 35.7988 184.297 36.2793C182.891 36.7598 181.215 37 179.27 37H174.453C174.184 37 173.926 36.9121 173.68 36.7363C173.445 36.5488 173.328 36.2266 173.328 35.7695V15.4844C173.328 15.0273 173.445 14.7109 173.68 14.5352C173.926 14.3477 174.184 14.2539 174.453 14.2539H179.604C181.572 14.2539 183.236 14.5117 184.596 15.0273C185.955 15.5313 187.092 16.2637 188.006 17.2246C188.932 18.1738 189.629 19.3281 190.098 20.6875C190.578 22.0469 190.818 23.582 190.818 25.293ZM187.637 25.416C187.637 24.1855 187.484 23.043 187.18 21.9883C186.875 20.9219 186.395 20.002 185.738 19.2285C185.094 18.4551 184.273 17.8516 183.277 17.418C182.281 16.9844 180.998 16.7676 179.428 16.7676H176.352V34.4688H179.463C180.916 34.4688 182.141 34.2871 183.137 33.9238C184.133 33.5605 184.965 33.0039 185.633 32.2539C186.301 31.5039 186.799 30.5664 187.127 29.4414C187.467 28.3047 187.637 26.9629 187.637 25.416ZM208.133 35.752C208.133 35.9629 208.121 36.1504 208.098 36.3145C208.074 36.4668 208.033 36.5957 207.975 36.7012C207.916 36.8066 207.846 36.8828 207.764 36.9297C207.693 36.9766 207.611 37 207.518 37H196.602C196.332 37 196.074 36.9121 195.828 36.7363C195.594 36.5488 195.477 36.2266 195.477 35.7695V15.4844C195.477 15.0273 195.594 14.7109 195.828 14.5352C196.074 14.3477 196.332 14.2539 196.602 14.2539H207.395C207.488 14.2539 207.57 14.2773 207.641 14.3242C207.723 14.3711 207.787 14.4473 207.834 14.5527C207.881 14.6582 207.916 14.793 207.939 14.957C207.975 15.1094 207.992 15.3027 207.992 15.5371C207.992 15.748 207.975 15.9355 207.939 16.0996C207.916 16.252 207.881 16.3809 207.834 16.4863C207.787 16.5801 207.723 16.6504 207.641 16.6973C207.57 16.7441 207.488 16.7676 207.395 16.7676H198.5V23.9043H206.129C206.223 23.9043 206.305 23.9336 206.375 23.9922C206.457 24.0391 206.521 24.1094 206.568 24.2031C206.627 24.2969 206.668 24.4258 206.691 24.5898C206.715 24.7539 206.727 24.9473 206.727 25.1699C206.727 25.3809 206.715 25.5625 206.691 25.7148C206.668 25.8672 206.627 25.9902 206.568 26.084C206.521 26.1777 206.457 26.248 206.375 26.2949C206.305 26.3301 206.223 26.3477 206.129 26.3477H198.5V34.4863H207.518C207.611 34.4863 207.693 34.5098 207.764 34.5566C207.846 34.6035 207.916 34.6797 207.975 34.7852C208.033 34.8789 208.074 35.0078 208.098 35.1719C208.121 35.3242 208.133 35.5176 208.133 35.752Z" fill="#FDECEC"/>
<g clip-path="url(#clip0)">
<path d="M47.4493 18.9197C47.3623 18.8522 41.8345 14.543 41.8345 14.543C40.855 13.779 39.6205 13.3546 38.3785 13.3546H22.5996C21.1676 13.3546 19.9526 13.9291 18.8358 14.7759L13.05 19.1619C12.5934 19.5081 12.0557 19.7451 11.4951 19.847C11.4761 19.8504 11.4572 19.8545 11.4384 19.8591L4.74525 21.4923C3.17195 21.7873 1.81136 22.8852 1.18946 24.3637L0.327612 26.411C-0.221529 27.7126 -0.0740626 29.206 0.721961 30.4057C1.51886 31.6067 2.83815 32.3237 4.25109 32.3237H6.35898C6.69082 34.7607 8.78426 36.6453 11.3108 36.6453C13.8374 36.6453 15.9308 34.7607 16.2626 32.3237H21.6628C22.2022 32.3237 22.6394 31.8865 22.6394 31.3471C22.6394 30.8078 22.2022 30.3705 21.6628 30.3705H16.1442C15.5722 28.2108 13.5454 26.6473 11.3105 26.6473C9.07714 26.6473 7.04875 28.2129 6.47685 30.3705H4.25109C3.49432 30.3705 2.78356 29.98 2.34946 29.3259C1.90989 28.6632 1.82884 27.8776 2.12758 27.1695L2.32807 26.6933H3.86104C4.40041 26.6933 4.83763 26.256 4.83763 25.7167C4.83763 25.1773 4.40041 24.7401 3.86104 24.7401H3.18728C3.61132 24.0503 4.32121 23.5535 5.12319 23.4088C5.14262 23.4053 5.16196 23.4012 5.1812 23.3965L11.8746 21.7633C12.7144 21.6057 13.5184 21.2508 14.2046 20.7367C14.8475 21.6247 15.8937 22.1927 17.0386 22.1927H28.7244C29.9889 22.1927 31.0177 21.164 31.0177 19.8994V15.308H33.9859V19.6409C33.9859 20.9054 35.0147 21.9341 36.2792 21.9341H43.4313C44.621 21.9341 45.7538 21.52 46.6544 20.7782C47.6152 21.5398 48.0468 21.9819 48.0468 22.6824V29.2101C48.0468 29.85 47.5253 30.3705 46.8841 30.3705H45.6053C45.0336 28.2065 43.0108 26.6473 40.7724 26.6473C38.5334 26.6473 36.5103 28.2059 35.9385 30.3705H30.2544C29.7151 30.3705 29.2778 30.8078 29.2778 31.3471C29.2778 31.8865 29.7151 32.3237 30.2544 32.3237H35.8202C36.152 34.7607 38.2454 36.6453 40.772 36.6453C43.2986 36.6453 45.392 34.7607 45.7238 32.3237H46.8842C48.6023 32.3237 50.0001 30.927 50.0001 29.2101V22.6824C50 20.9007 48.818 19.9828 47.4493 18.9197V18.9197ZM11.3108 34.6921C9.63136 34.6921 8.265 33.3257 8.265 31.6463C8.265 30.0495 9.56309 28.6842 11.1583 28.6044C12.8692 28.5194 14.3566 29.9331 14.3566 31.6463C14.3566 33.3257 12.9903 34.6921 11.3108 34.6921V34.6921ZM29.0645 19.8993C29.0645 20.0868 28.9119 20.2394 28.7244 20.2394H17.0385C16.5165 20.2394 16.0408 19.9723 15.7605 19.5582L20.3833 16.0537C21.015 15.5742 21.8062 15.3084 22.599 15.3084H29.0644V19.8993H29.0645ZM36.2792 19.9808C36.0917 19.9808 35.9391 19.8283 35.9391 19.6408V15.3084H38.3783C39.1879 15.3084 39.9956 15.5848 40.6337 16.0838L45.0524 19.5283C44.5699 19.8215 44.0114 19.9809 43.4314 19.9809H36.2792V19.9808ZM40.7719 34.6921C39.0924 34.6921 37.7261 33.3257 37.7261 31.6463C37.7261 29.9944 39.1177 28.6005 40.7719 28.6005C42.426 28.6005 43.8177 29.9953 43.8177 31.6463C43.8177 33.3257 42.4514 34.6921 40.7719 34.6921Z" fill="#FDECEC"/>
<path d="M30.6753 25.7166C30.6753 25.1772 30.2381 24.74 29.6987 24.74H27.7229C27.1836 24.74 26.7463 25.1772 26.7463 25.7166C26.7463 26.256 27.1836 26.6932 27.7229 26.6932H29.6987C30.2381 26.6932 30.6753 26.256 30.6753 25.7166Z" fill="#FDECEC"/>
<path d="M26.9551 30.9739C26.7533 30.4815 26.1704 30.2423 25.6797 30.4455C25.1882 30.6491 24.9479 31.2294 25.1514 31.7209C25.355 32.2125 25.9356 32.4521 26.4268 32.2492C26.9177 32.0465 27.1595 31.4645 26.9551 30.9739Z" fill="#FDECEC"/>
</g>
<defs>
<clipPath id="clip0">
<rect width="50" height="50" fill="white"/>
</clipPath>
</defs>
</svg>
