<svg width="336" height="70" viewBox="0 0 336 70" fill="none" xmlns="http://www.w3.org/2000/svg">
<path d="M97.312 49L91.552 40.9C90.904 40.972 90.232 41.008 89.536 41.008H82.768V49H80.104V23.8H89.536C92.752 23.8 95.272 24.568 97.096 26.104C98.92 27.64 99.832 29.752 99.832 32.44C99.832 34.408 99.328 36.076 98.32 37.444C97.336 38.788 95.92 39.76 94.072 40.36L100.228 49H97.312ZM89.464 38.74C91.96 38.74 93.868 38.188 95.188 37.084C96.508 35.98 97.168 34.432 97.168 32.44C97.168 30.4 96.508 28.84 95.188 27.76C93.868 26.656 91.96 26.104 89.464 26.104H82.768V38.74H89.464ZM113.68 46.912C114.856 46.912 115.936 46.708 116.92 46.3C117.928 45.868 118.78 45.244 119.476 44.428L120.916 46.084C120.076 47.092 119.032 47.86 117.784 48.388C116.536 48.916 115.156 49.18 113.644 49.18C111.7 49.18 109.972 48.772 108.46 47.956C106.948 47.116 105.772 45.964 104.932 44.5C104.092 43.036 103.672 41.38 103.672 39.532C103.672 37.684 104.068 36.028 104.86 34.564C105.676 33.1 106.792 31.96 108.208 31.144C109.624 30.328 111.232 29.92 113.032 29.92C114.712 29.92 116.224 30.304 117.568 31.072C118.936 31.84 120.016 32.908 120.808 34.276C121.624 35.644 122.056 37.204 122.104 38.956L106.552 41.98C107.032 43.516 107.896 44.728 109.144 45.616C110.416 46.48 111.928 46.912 113.68 46.912ZM113.032 32.116C111.712 32.116 110.524 32.428 109.468 33.052C108.436 33.652 107.62 34.504 107.02 35.608C106.444 36.688 106.156 37.936 106.156 39.352C106.156 39.712 106.168 39.976 106.192 40.144L119.548 37.552C119.26 35.968 118.528 34.672 117.352 33.664C116.176 32.632 114.736 32.116 113.032 32.116ZM136.63 47.848C136.15 48.28 135.562 48.616 134.866 48.856C134.17 49.072 133.438 49.18 132.67 49.18C130.894 49.18 129.526 48.7 128.566 47.74C127.606 46.78 127.126 45.424 127.126 43.672V25.924H129.682V30.064H135.406V32.224H129.682V43.528C129.682 44.656 129.958 45.52 130.51 46.12C131.062 46.696 131.866 46.984 132.922 46.984C134.074 46.984 135.01 46.66 135.73 46.012L136.63 47.848ZM143.711 33.772C144.311 32.5 145.199 31.54 146.375 30.892C147.575 30.244 149.051 29.92 150.803 29.92V32.404L150.191 32.368C148.199 32.368 146.639 32.98 145.511 34.204C144.383 35.428 143.819 37.144 143.819 39.352V49H141.263V30.064H143.711V33.772ZM162.995 49.18C161.171 49.18 159.527 48.772 158.063 47.956C156.599 47.116 155.447 45.964 154.607 44.5C153.767 43.036 153.347 41.38 153.347 39.532C153.347 37.684 153.767 36.028 154.607 34.564C155.447 33.1 156.599 31.96 158.063 31.144C159.527 30.328 161.171 29.92 162.995 29.92C164.819 29.92 166.463 30.328 167.927 31.144C169.391 31.96 170.531 33.1 171.347 34.564C172.187 36.028 172.607 37.684 172.607 39.532C172.607 41.38 172.187 43.036 171.347 44.5C170.531 45.964 169.391 47.116 167.927 47.956C166.463 48.772 164.819 49.18 162.995 49.18ZM162.995 46.912C164.339 46.912 165.539 46.612 166.595 46.012C167.675 45.388 168.515 44.512 169.115 43.384C169.715 42.256 170.015 40.972 170.015 39.532C170.015 38.092 169.715 36.808 169.115 35.68C168.515 34.552 167.675 33.688 166.595 33.088C165.539 32.464 164.339 32.152 162.995 32.152C161.651 32.152 160.439 32.464 159.359 33.088C158.303 33.688 157.463 34.552 156.839 35.68C156.239 36.808 155.939 38.092 155.939 39.532C155.939 40.972 156.239 42.256 156.839 43.384C157.463 44.512 158.303 45.388 159.359 46.012C160.439 46.612 161.651 46.912 162.995 46.912ZM189.31 49.216C186.814 49.216 184.558 48.664 182.542 47.56C180.55 46.456 178.978 44.932 177.826 42.988C176.698 41.02 176.134 38.824 176.134 36.4C176.134 33.976 176.698 31.792 177.826 29.848C178.978 27.88 180.562 26.344 182.578 25.24C184.594 24.136 186.85 23.584 189.346 23.584C191.218 23.584 192.946 23.896 194.53 24.52C196.114 25.144 197.458 26.056 198.562 27.256L196.87 28.948C194.902 26.956 192.418 25.96 189.418 25.96C187.426 25.96 185.614 26.416 183.982 27.328C182.35 28.24 181.066 29.488 180.13 31.072C179.218 32.656 178.762 34.432 178.762 36.4C178.762 38.368 179.218 40.144 180.13 41.728C181.066 43.312 182.35 44.56 183.982 45.472C185.614 46.384 187.426 46.84 189.418 46.84C192.442 46.84 194.926 45.832 196.87 43.816L198.562 45.508C197.458 46.708 196.102 47.632 194.494 48.28C192.91 48.904 191.182 49.216 189.31 49.216ZM220.137 30.064V49H217.689V45.256C216.921 46.528 215.901 47.5 214.629 48.172C213.381 48.844 211.965 49.18 210.381 49.18C208.605 49.18 206.997 48.772 205.557 47.956C204.117 47.14 202.989 46 202.173 44.536C201.357 43.072 200.949 41.404 200.949 39.532C200.949 37.66 201.357 35.992 202.173 34.528C202.989 33.064 204.117 31.936 205.557 31.144C206.997 30.328 208.605 29.92 210.381 29.92C211.917 29.92 213.297 30.244 214.521 30.892C215.769 31.516 216.789 32.44 217.581 33.664V30.064H220.137ZM210.597 46.912C211.917 46.912 213.105 46.612 214.161 46.012C215.241 45.388 216.081 44.512 216.681 43.384C217.305 42.256 217.617 40.972 217.617 39.532C217.617 38.092 217.305 36.808 216.681 35.68C216.081 34.552 215.241 33.688 214.161 33.088C213.105 32.464 211.917 32.152 210.597 32.152C209.253 32.152 208.041 32.464 206.961 33.088C205.905 33.688 205.065 34.552 204.441 35.68C203.841 36.808 203.541 38.092 203.541 39.532C203.541 40.972 203.841 42.256 204.441 43.384C205.065 44.512 205.905 45.388 206.961 46.012C208.041 46.612 209.253 46.912 210.597 46.912ZM229.703 33.772C230.303 32.5 231.191 31.54 232.367 30.892C233.567 30.244 235.043 29.92 236.795 29.92V32.404L236.183 32.368C234.191 32.368 232.631 32.98 231.503 34.204C230.375 35.428 229.811 37.144 229.811 39.352V49H227.255V30.064H229.703V33.772ZM246.64 49.18C245.104 49.18 243.628 48.964 242.212 48.532C240.82 48.076 239.728 47.512 238.936 46.84L240.088 44.824C240.88 45.448 241.876 45.964 243.076 46.372C244.276 46.756 245.524 46.948 246.82 46.948C248.548 46.948 249.82 46.684 250.636 46.156C251.476 45.604 251.896 44.836 251.896 43.852C251.896 43.156 251.668 42.616 251.212 42.232C250.756 41.824 250.18 41.524 249.484 41.332C248.788 41.116 247.864 40.912 246.712 40.72C245.176 40.432 243.94 40.144 243.004 39.856C242.068 39.544 241.264 39.028 240.592 38.308C239.944 37.588 239.62 36.592 239.62 35.32C239.62 33.736 240.28 32.44 241.6 31.432C242.92 30.424 244.756 29.92 247.108 29.92C248.332 29.92 249.556 30.088 250.78 30.424C252.004 30.736 253.012 31.156 253.804 31.684L252.688 33.736C251.128 32.656 249.268 32.116 247.108 32.116C245.476 32.116 244.24 32.404 243.4 32.98C242.584 33.556 242.176 34.312 242.176 35.248C242.176 35.968 242.404 36.544 242.86 36.976C243.34 37.408 243.928 37.732 244.624 37.948C245.32 38.14 246.28 38.344 247.504 38.56C249.016 38.848 250.228 39.136 251.14 39.424C252.052 39.712 252.832 40.204 253.48 40.9C254.128 41.596 254.452 42.556 254.452 43.78C254.452 45.436 253.756 46.756 252.364 47.74C250.996 48.7 249.088 49.18 246.64 49.18ZM269.139 23.8H279.399C282.063 23.8 284.415 24.34 286.455 25.42C288.495 26.476 290.079 27.964 291.207 29.884C292.335 31.78 292.899 33.952 292.899 36.4C292.899 38.848 292.335 41.032 291.207 42.952C290.079 44.848 288.495 46.336 286.455 47.416C284.415 48.472 282.063 49 279.399 49H269.139V23.8ZM279.255 46.696C281.463 46.696 283.395 46.264 285.051 45.4C286.707 44.512 287.991 43.3 288.903 41.764C289.815 40.204 290.271 38.416 290.271 36.4C290.271 34.384 289.815 32.608 288.903 31.072C287.991 29.512 286.707 28.3 285.051 27.436C283.395 26.548 281.463 26.104 279.255 26.104H271.803V46.696H279.255ZM316.881 46.12C315.849 47.104 314.469 47.872 312.741 48.424C311.037 48.952 309.141 49.216 307.053 49.216C304.845 49.216 302.961 48.916 301.401 48.316C299.865 47.716 298.701 46.888 297.909 45.832C297.141 44.776 296.757 43.564 296.757 42.196C296.757 40.684 297.201 39.4 298.089 38.344C299.001 37.288 300.189 36.556 301.653 36.148C300.453 35.692 299.517 34.972 298.845 33.988C298.173 32.98 297.837 31.804 297.837 30.46C297.837 29.188 298.197 28.036 298.917 27.004C299.661 25.948 300.765 25.12 302.229 24.52C303.717 23.896 305.505 23.584 307.593 23.584C309.129 23.584 310.617 23.764 312.057 24.124C313.521 24.46 314.769 24.952 315.801 25.6L314.973 27.724C312.765 26.476 310.341 25.852 307.701 25.852C305.373 25.852 303.585 26.296 302.337 27.184C301.113 28.072 300.501 29.224 300.501 30.64C300.501 32.056 300.993 33.148 301.977 33.916C302.985 34.684 304.401 35.068 306.225 35.068H312.489V37.372H306.117C304.053 37.372 302.421 37.768 301.221 38.56C300.021 39.328 299.421 40.48 299.421 42.016C299.421 43.528 300.069 44.728 301.365 45.616C302.685 46.504 304.617 46.948 307.161 46.948C308.937 46.948 310.593 46.696 312.129 46.192C313.665 45.688 314.913 44.992 315.873 44.104L316.881 46.12Z" fill="#99C8F2"/>
<g clip-path="url(#clip0)">
<path d="M5.87883 29.9987L3.416 30.1748C2.80422 30.2184 2.33062 30.7282 2.33216 31.3415V31.5002C2.33216 32.1445 2.8545 32.6668 3.49883 32.6668H4.99217L5.87883 29.9987Z" fill="#99C8F2"/>
<path d="M15.1667 47.8333C16.8309 47.8291 18.3674 46.9404 19.201 45.5H11.1323C11.9659 46.9404 13.5024 47.8291 15.1667 47.8333Z" fill="#99C8F2"/>
<path d="M28 19.8334L25.7717 19.8334C24.0025 19.8271 22.3838 20.8276 21.5985 22.4129L19.3877 26.8334H28V19.8334Z" fill="#99C8F2"/>
<path d="M60.6667 33.8334C60.6667 33.1891 61.189 32.6667 61.8333 32.6667H63.2147C63.0765 32.2931 63.0039 31.8984 63 31.5001V29.1667H36.1667C35.5223 29.1667 35 28.6444 35 28.0001C35 27.3557 35.5223 26.8334 36.1667 26.8334H47.1123L44.9015 22.4129C44.1162 20.8276 42.4975 19.8271 40.7283 19.8334H30.3333V26.8334H31.5C32.1443 26.8334 32.6667 27.3557 32.6667 28.0001C32.6667 28.6444 32.1443 29.1667 31.5 29.1667H17.5432L8.4 29.8201L7.45033 32.6667H52.5C53.1443 32.6667 53.6667 33.1891 53.6667 33.8334C53.6667 34.4777 53.1443 35.0001 52.5 35.0001H28.721L27.3548 37.7324C26.7655 38.9212 25.5515 39.6714 24.2247 39.6667H12.8333C12.189 39.6667 11.6667 39.1444 11.6667 38.5001C11.6667 37.8557 12.189 37.3334 12.8333 37.3334H24.2247C24.6669 37.3348 25.0715 37.0846 25.2677 36.6882L26.1123 35.0001H6.6745L4.46367 41.6314C4.34516 41.9872 4.40492 42.3783 4.62427 42.6825C4.84362 42.9867 5.19582 43.1668 5.57083 43.1668H50.1667C50.1667 39.3008 53.3007 36.1667 57.1667 36.1667C61.0326 36.1667 64.1667 39.3008 64.1667 43.1668H65.3333C65.9777 43.1668 66.5 42.6444 66.5 42.0001V35.0001H61.8333C61.189 35.0001 60.6667 34.4777 60.6667 33.8334Z" fill="#99C8F2"/>
<path d="M65.3333 29.1667V31.5001C65.3333 32.1444 65.8557 32.6667 66.5 32.6667C67.1443 32.6667 67.6666 32.1444 67.6666 31.5001V30.3334C67.6666 29.6891 67.1443 29.1667 66.5 29.1667H65.3333Z" fill="#99C8F2"/>
<path d="M57.1667 38.5C54.5894 38.5 52.5 40.5893 52.5 43.1667C52.5 45.744 54.5894 47.8333 57.1667 47.8333C59.744 47.8333 61.8334 45.744 61.8334 43.1667C61.8334 40.5893 59.744 38.5 57.1667 38.5ZM57.1667 44.3333C56.5224 44.3333 56 43.811 56 43.1667C56 42.5223 56.5224 42 57.1667 42C57.811 42 58.3334 42.5223 58.3334 43.1667C58.3334 43.811 57.811 44.3333 57.1667 44.3333Z" fill="#99C8F2"/>
<path d="M32.6667 50.1667H1.16667C0.522334 50.1667 0 49.6444 0 49C0 48.3557 0.522334 47.8334 1.16667 47.8334H32.6667C33.311 47.8334 33.8333 48.3557 33.8333 49C33.8333 49.6444 33.311 50.1667 32.6667 50.1667Z" fill="#99C8F2"/>
<path d="M68.8333 50.1667H37.3333C36.689 50.1667 36.1667 49.6444 36.1667 49C36.1667 48.3557 36.689 47.8334 37.3333 47.8334H68.8333C69.4777 47.8334 70 48.3557 70 49C70 49.6444 69.4777 50.1667 68.8333 50.1667Z" fill="#99C8F2"/>
</g>
<defs>
<clipPath id="clip0">
<rect width="70" height="70" fill="white"/>
</clipPath>
</defs>
</svg>
