<svg width="207" height="45" viewBox="0 0 207 45" fill="none" xmlns="http://www.w3.org/2000/svg">
<path d="M12.1543 35.36C10.2103 35.36 8.32631 35.084 6.50231 34.532C4.70231 33.98 3.27431 33.248 2.21831 32.336L3.83831 28.7C4.87031 29.516 6.13031 30.188 7.61831 30.716C9.13031 31.22 10.6423 31.472 12.1543 31.472C14.0263 31.472 15.4183 31.172 16.3303 30.572C17.2663 29.972 17.7343 29.18 17.7343 28.196C17.7343 27.476 17.4703 26.888 16.9423 26.432C16.4383 25.952 15.7903 25.58 14.9983 25.316C14.2063 25.052 13.1263 24.752 11.7583 24.416C9.83831 23.96 8.27831 23.504 7.07831 23.048C5.90231 22.592 4.88231 21.884 4.01831 20.924C3.17831 19.94 2.75831 18.62 2.75831 16.964C2.75831 15.572 3.13031 14.312 3.87431 13.184C4.64231 12.032 5.78231 11.12 7.29431 10.448C8.83031 9.776 10.7023 9.44 12.9103 9.44C14.4463 9.44 15.9583 9.632 17.4463 10.016C18.9343 10.4 20.2183 10.952 21.2983 11.672L19.8223 15.308C18.7183 14.66 17.5663 14.168 16.3663 13.832C15.1663 13.496 14.0023 13.328 12.8743 13.328C11.0263 13.328 9.64631 13.64 8.73431 14.264C7.84631 14.888 7.40231 15.716 7.40231 16.748C7.40231 17.468 7.65431 18.056 8.15831 18.512C8.68631 18.968 9.34631 19.328 10.1383 19.592C10.9303 19.856 12.0103 20.156 13.3783 20.492C15.2503 20.924 16.7863 21.38 17.9863 21.86C19.1863 22.316 20.2063 23.024 21.0463 23.984C21.9103 24.944 22.3423 26.24 22.3423 27.872C22.3423 29.264 21.9583 30.524 21.1903 31.652C20.4463 32.78 19.3063 33.68 17.7703 34.352C16.2343 35.024 14.3623 35.36 12.1543 35.36ZM44.8389 21.896C46.2309 22.352 47.3349 23.12 48.1509 24.2C48.9669 25.256 49.3749 26.576 49.3749 28.16C49.3749 30.344 48.5349 32.036 46.8549 33.236C45.1749 34.412 42.7269 35 39.5109 35H26.9829V9.8H38.7909C41.7669 9.8 44.0589 10.388 45.6669 11.564C47.2749 12.716 48.0789 14.312 48.0789 16.352C48.0789 17.6 47.7909 18.704 47.2149 19.664C46.6389 20.624 45.8469 21.368 44.8389 21.896ZM31.6629 13.472V20.42H38.2869C39.9189 20.42 41.1669 20.132 42.0309 19.556C42.9189 18.956 43.3629 18.092 43.3629 16.964C43.3629 15.812 42.9189 14.948 42.0309 14.372C41.1669 13.772 39.9189 13.472 38.2869 13.472H31.6629ZM39.2229 31.328C42.8469 31.328 44.6589 30.116 44.6589 27.692C44.6589 25.268 42.8469 24.056 39.2229 24.056H31.6629V31.328H39.2229ZM59.1301 13.76H50.7781V9.8H72.1621V13.76H63.8101V35H59.1301V13.76ZM89.5476 35.36C87.9396 35.36 86.4516 35.048 85.0836 34.424C83.7396 33.776 82.6356 32.876 81.7716 31.724L84.4356 28.52C85.8276 30.44 87.4956 31.4 89.4396 31.4C92.0556 31.4 93.3636 29.852 93.3636 26.756V13.724H84.3996V9.8H98.0436V26.504C98.0436 29.456 97.3236 31.676 95.8836 33.164C94.4436 34.628 92.3316 35.36 89.5476 35.36ZM111.52 15.56C114.352 15.56 116.512 16.244 118 17.612C119.512 18.956 120.268 20.996 120.268 23.732V35H116.02V32.66C115.468 33.5 114.676 34.148 113.644 34.604C112.636 35.036 111.412 35.252 109.972 35.252C108.532 35.252 107.272 35.012 106.192 34.532C105.112 34.028 104.272 33.344 103.672 32.48C103.096 31.592 102.808 30.596 102.808 29.492C102.808 27.764 103.444 26.384 104.716 25.352C106.012 24.296 108.04 23.768 110.8 23.768H115.768V23.48C115.768 22.136 115.36 21.104 114.544 20.384C113.752 19.664 112.564 19.304 110.98 19.304C109.9 19.304 108.832 19.472 107.776 19.808C106.744 20.144 105.868 20.612 105.148 21.212L103.384 17.936C104.392 17.168 105.604 16.58 107.02 16.172C108.436 15.764 109.936 15.56 111.52 15.56ZM110.908 31.976C112.036 31.976 113.032 31.724 113.896 31.22C114.784 30.692 115.408 29.948 115.768 28.988V26.756H111.124C108.532 26.756 107.236 27.608 107.236 29.312C107.236 30.128 107.56 30.776 108.208 31.256C108.856 31.736 109.756 31.976 110.908 31.976ZM136.699 15.56C138.571 15.56 140.239 15.968 141.703 16.784C143.191 17.6 144.355 18.752 145.195 20.24C146.035 21.728 146.455 23.444 146.455 25.388C146.455 27.332 146.035 29.06 145.195 30.572C144.355 32.06 143.191 33.212 141.703 34.028C140.239 34.844 138.571 35.252 136.699 35.252C134.107 35.252 132.055 34.388 130.543 32.66V41.984H126.043V15.776H130.327V18.296C131.071 17.384 131.983 16.7 133.063 16.244C134.167 15.788 135.379 15.56 136.699 15.56ZM136.195 31.4C137.851 31.4 139.207 30.848 140.263 29.744C141.343 28.64 141.883 27.188 141.883 25.388C141.883 23.588 141.343 22.136 140.263 21.032C139.207 19.928 137.851 19.376 136.195 19.376C135.115 19.376 134.143 19.628 133.279 20.132C132.415 20.612 131.731 21.308 131.227 22.22C130.723 23.132 130.471 24.188 130.471 25.388C130.471 26.588 130.723 27.644 131.227 28.556C131.731 29.468 132.415 30.176 133.279 30.68C134.143 31.16 135.115 31.4 136.195 31.4ZM157.821 15.56C160.653 15.56 162.813 16.244 164.301 17.612C165.813 18.956 166.569 20.996 166.569 23.732V35H162.321V32.66C161.769 33.5 160.977 34.148 159.945 34.604C158.937 35.036 157.713 35.252 156.273 35.252C154.833 35.252 153.573 35.012 152.493 34.532C151.413 34.028 150.573 33.344 149.973 32.48C149.397 31.592 149.109 30.596 149.109 29.492C149.109 27.764 149.745 26.384 151.017 25.352C152.313 24.296 154.341 23.768 157.101 23.768H162.069V23.48C162.069 22.136 161.661 21.104 160.845 20.384C160.053 19.664 158.865 19.304 157.281 19.304C156.201 19.304 155.133 19.472 154.077 19.808C153.045 20.144 152.169 20.612 151.449 21.212L149.685 17.936C150.693 17.168 151.905 16.58 153.321 16.172C154.737 15.764 156.237 15.56 157.821 15.56ZM157.209 31.976C158.337 31.976 159.333 31.724 160.197 31.22C161.085 30.692 161.709 29.948 162.069 28.988V26.756H157.425C154.833 26.756 153.537 27.608 153.537 29.312C153.537 30.128 153.861 30.776 154.509 31.256C155.157 31.736 156.057 31.976 157.209 31.976ZM183.252 15.56C185.676 15.56 187.62 16.268 189.084 17.684C190.548 19.1 191.28 21.2 191.28 23.984V35H186.78V24.56C186.78 22.88 186.384 21.62 185.592 20.78C184.8 19.916 183.672 19.484 182.208 19.484C180.552 19.484 179.244 19.988 178.284 20.996C177.324 21.98 176.844 23.408 176.844 25.28V35H172.344V15.776H176.628V18.26C177.372 17.372 178.308 16.7 179.436 16.244C180.564 15.788 181.836 15.56 183.252 15.56Z" fill="#DBDBDB"/>
<line x1="0.954956" y1="42.5" x2="69.0034" y2="42.5" stroke="#DBDBDB" stroke-width="2"/>
<line y1="3" x2="68.0484" y2="3" stroke="#DBDBDB" stroke-width="2"/>
</svg>
