<svg width="222" height="45" viewBox="0 0 222 45" fill="none" xmlns="http://www.w3.org/2000/svg">
<path d="M9.61492 37.132C9.23092 37.132 8.76292 37.048 8.21092 36.88C7.68292 36.736 7.20292 36.424 6.77092 35.944C6.36292 35.488 6.15892 34.816 6.15892 33.928C6.15892 33.016 6.37492 31.852 6.80692 30.436C7.23892 29.02 7.74292 27.436 8.31892 25.684C8.89492 23.908 9.39892 22.024 9.83092 20.032C10.2629 18.016 10.4789 15.964 10.4789 13.876C10.4789 12.604 10.3349 11.572 10.0469 10.78C9.78292 9.988 9.19492 9.592 8.28292 9.592C7.46692 9.592 6.79492 9.904 6.26692 10.528C5.76292 11.128 5.39092 11.86 5.15092 12.724C4.93492 13.588 4.82692 14.38 4.82692 15.1C4.82692 15.508 4.86292 15.904 4.93492 16.288C5.03092 16.672 5.17492 17.056 5.36692 17.44C4.19092 17.44 3.33892 17.164 2.81092 16.612C2.28292 16.06 2.01892 15.376 2.01892 14.56C2.01892 13.84 2.19892 13.096 2.55892 12.328C2.91892 11.56 3.41092 10.864 4.03492 10.24C4.68292 9.592 5.42692 9.076 6.26692 8.692C7.13092 8.284 8.04292 8.08 9.00292 8.08C10.6349 8.08 11.8709 8.68 12.7109 9.88C13.5509 11.056 13.9709 12.676 13.9709 14.74C13.9709 16.06 13.8149 17.44 13.5029 18.88C13.2149 20.32 12.8549 21.772 12.4229 23.236C11.9909 24.676 11.5469 26.08 11.0909 27.448C10.6589 28.816 10.2869 30.088 9.97492 31.264C9.68692 32.416 9.54292 33.424 9.54292 34.288C9.54292 34.672 9.59092 34.972 9.68692 35.188C9.80692 35.404 10.0469 35.512 10.4069 35.512C11.1029 35.512 11.8829 35.188 12.7469 34.54C13.6349 33.892 14.5469 33.016 15.4829 31.912C16.4189 30.784 17.3309 29.512 18.2189 28.096C19.1069 26.68 19.9109 25.204 20.6309 23.668C21.3509 22.132 21.9149 20.608 22.3229 19.096C22.7549 17.584 22.9709 16.192 22.9709 14.92C22.9709 13.648 22.7429 12.676 22.2869 12.004C21.8309 11.332 21.2549 10.876 20.5589 10.636C20.8949 9.916 21.3029 9.4 21.7829 9.088C22.2869 8.752 22.7309 8.584 23.1149 8.584C23.7629 8.584 24.3749 8.992 24.9509 9.808C25.5269 10.624 25.8149 11.776 25.8149 13.264C25.8149 14.56 25.5629 16.048 25.0589 17.728C24.5789 19.384 23.9069 21.112 23.0429 22.912C22.1789 24.688 21.1949 26.428 20.0909 28.132C19.0109 29.812 17.8589 31.336 16.6349 32.704C15.4349 34.048 14.2349 35.116 13.0349 35.908C11.8349 36.724 10.6949 37.132 9.61492 37.132ZM31.2315 18.844C30.7755 18.844 30.3555 18.736 29.9715 18.52C29.6115 18.28 29.4315 17.92 29.4315 17.44C29.4315 16.864 29.7435 16.372 30.3675 15.964C30.9915 15.556 31.6395 15.352 32.3115 15.352C32.7435 15.352 33.1035 15.448 33.3915 15.64C33.7035 15.832 33.8595 16.18 33.8595 16.684C33.8595 17.188 33.5835 17.68 33.0315 18.16C32.4795 18.616 31.8795 18.844 31.2315 18.844ZM26.9835 35.08C25.9275 35.08 25.1355 34.768 24.6075 34.144C24.0795 33.52 23.8155 32.764 23.8155 31.876C23.8155 31.324 23.9115 30.628 24.1035 29.788C24.2955 28.948 24.5595 28.072 24.8955 27.16C25.2555 26.224 25.6635 25.348 26.1195 24.532C26.5755 23.716 27.0675 23.056 27.5955 22.552C28.1235 22.024 28.6515 21.76 29.1795 21.76C29.4675 21.76 29.7195 21.856 29.9355 22.048C30.1515 22.216 30.2595 22.468 30.2595 22.804C30.2595 23.116 30.0675 23.584 29.6835 24.208C29.3235 24.832 28.8915 25.552 28.3875 26.368C27.9075 27.184 27.4755 28.036 27.0915 28.924C26.7315 29.788 26.5515 30.616 26.5515 31.408C26.5515 32.176 26.6835 32.692 26.9475 32.956C27.2355 33.196 27.6435 33.316 28.1715 33.316C28.9875 33.316 29.8755 32.908 30.8355 32.092C31.7955 31.276 32.7915 29.848 33.8235 27.808L34.3635 28.384C33.5235 30.496 32.4555 32.14 31.1595 33.316C29.8635 34.492 28.4715 35.08 26.9835 35.08ZM45.0246 34.72C44.0886 34.72 43.3686 34.48 42.8646 34C42.3846 33.544 42.1446 32.956 42.1446 32.236C42.1446 31.756 42.2286 31.252 42.3966 30.724C42.5646 30.172 42.7326 29.62 42.9006 29.068C43.0686 28.516 43.1526 27.988 43.1526 27.484C43.1526 26.956 43.0206 26.596 42.7566 26.404C42.5166 26.188 42.2286 26.08 41.8926 26.08C41.1726 26.08 40.4286 26.38 39.6606 26.98C38.9166 27.556 38.1846 28.288 37.4646 29.176C36.7686 30.064 36.1086 30.988 35.4846 31.948C34.8606 32.908 34.3206 33.772 33.8646 34.54C33.4086 34.54 32.9766 34.456 32.5686 34.288C32.1606 34.144 31.8126 33.88 31.5246 33.496C31.5486 33.376 31.6926 33.016 31.9566 32.416C32.1966 31.792 32.4726 31.06 32.7846 30.22C33.0966 29.356 33.3726 28.456 33.6126 27.52C33.8526 26.584 33.9726 25.732 33.9726 24.964C34.1406 24.772 34.3926 24.58 34.7286 24.388C35.0886 24.196 35.4606 24.1 35.8446 24.1C36.6846 24.1 37.1046 24.46 37.1046 25.18C37.1046 25.828 36.9006 26.896 36.4926 28.384C37.1166 27.544 37.8006 26.752 38.5446 26.008C39.2886 25.264 40.0566 24.664 40.8486 24.208C41.6646 23.728 42.4806 23.488 43.2966 23.488C44.3286 23.488 45.0846 23.836 45.5646 24.532C46.0686 25.228 46.3206 25.996 46.3206 26.836C46.3206 27.556 46.2006 28.228 45.9606 28.852C45.7206 29.476 45.4806 30.064 45.2406 30.616C45.0246 31.168 44.9166 31.708 44.9166 32.236C44.9166 32.62 45.0006 32.896 45.1686 33.064C45.3606 33.208 45.5646 33.28 45.7806 33.28C46.3566 33.28 46.9566 33.004 47.5806 32.452C48.2046 31.9 48.7926 31.204 49.3446 30.364C49.9206 29.5 50.4246 28.636 50.8566 27.772L51.4686 28.276C50.9646 29.452 50.3886 30.532 49.7406 31.516C49.1166 32.476 48.4086 33.256 47.6166 33.856C46.8486 34.432 45.9846 34.72 45.0246 34.72ZM53.1842 35.656C52.1282 35.656 51.2762 35.344 50.6282 34.72C49.9802 34.096 49.6562 33.148 49.6562 31.876C49.6562 30.892 49.8362 29.668 50.1962 28.204C50.5802 26.74 51.0602 25.228 51.6362 23.668C51.4682 23.62 51.2642 23.584 51.0242 23.56C50.8082 23.512 50.5922 23.44 50.3762 23.344V22.228C50.7602 22.276 51.0722 22.312 51.3122 22.336C51.5762 22.36 51.8402 22.384 52.1042 22.408C52.6082 21.136 53.1482 19.912 53.7242 18.736C54.3242 17.536 54.9122 16.468 55.4882 15.532C56.0882 14.596 56.6522 13.864 57.1802 13.336C57.7082 12.784 58.1762 12.508 58.5842 12.508C58.8242 12.508 59.0522 12.604 59.2682 12.796C59.4842 12.964 59.5922 13.216 59.5922 13.552C59.5922 14.032 59.3402 14.716 58.8362 15.604C58.3562 16.492 57.7562 17.536 57.0362 18.736C56.3162 19.912 55.6202 21.172 54.9482 22.516H56.0642C57.1202 22.516 58.0682 22.504 58.9082 22.48C59.7722 22.432 60.6482 22.36 61.5362 22.264V23.452C60.2162 23.572 59.0042 23.668 57.9002 23.74C56.7962 23.812 55.7402 23.86 54.7322 23.884H54.3002C53.7962 25.06 53.3522 26.272 52.9682 27.52C52.6082 28.744 52.4282 29.944 52.4282 31.12C52.4282 32.104 52.5842 32.8 52.8962 33.208C53.2082 33.616 53.7002 33.82 54.3722 33.82C55.5722 33.82 56.7962 33.28 58.0442 32.2C59.3162 31.096 60.4202 29.608 61.3562 27.736L61.8602 28.096C61.2362 29.512 60.4562 30.796 59.5202 31.948C58.6082 33.1 57.6122 34 56.5322 34.648C55.4522 35.32 54.3362 35.656 53.1842 35.656ZM62.2953 35.692C61.5033 35.692 60.8193 35.428 60.2433 34.9C59.6433 34.372 59.3433 33.58 59.3433 32.524C59.3433 31.684 59.5353 30.772 59.9193 29.788C60.3033 28.804 60.8313 27.832 61.5033 26.872C62.1753 25.912 62.9433 25.048 63.8073 24.28C64.6713 23.488 65.5953 22.852 66.5793 22.372C67.5633 21.892 68.5473 21.652 69.5313 21.652C70.5633 21.652 71.4393 21.916 72.1593 22.444C72.8793 22.972 73.2393 23.668 73.2393 24.532C73.2393 25.18 73.0113 25.648 72.5553 25.936C72.0993 26.224 71.5593 26.308 70.9353 26.188C70.9833 25.972 71.0193 25.756 71.0433 25.54C71.0913 25.324 71.1153 25.096 71.1153 24.856C71.1153 24.376 71.0193 23.944 70.8273 23.56C70.6353 23.176 70.2273 22.984 69.6033 22.984C68.9313 22.984 68.2473 23.212 67.5513 23.668C66.8553 24.124 66.1833 24.724 65.5353 25.468C64.9113 26.188 64.3473 26.992 63.8433 27.88C63.3393 28.744 62.9433 29.596 62.6553 30.436C62.3673 31.276 62.2233 32.032 62.2233 32.704C62.2233 33.472 62.4993 33.856 63.0513 33.856C63.6033 33.856 64.2153 33.592 64.8873 33.064C65.5593 32.512 66.2313 31.828 66.9033 31.012C67.5993 30.196 68.2593 29.368 68.8833 28.528C69.5073 27.664 70.0473 26.932 70.5033 26.332C70.5753 26.212 70.6713 26.152 70.7913 26.152C70.8873 26.176 71.0673 26.236 71.3313 26.332C71.6193 26.404 71.8833 26.524 72.1233 26.692C72.3633 26.86 72.4833 27.076 72.4833 27.34C72.4833 27.652 72.3153 28.084 71.9793 28.636C71.6433 29.164 71.2953 29.74 70.9353 30.364C70.5993 30.988 70.4313 31.564 70.4313 32.092C70.4313 32.404 70.5153 32.704 70.6833 32.992C70.8513 33.256 71.1273 33.388 71.5113 33.388C72.0873 33.388 72.8913 32.968 73.9233 32.128C74.9793 31.264 76.0473 29.812 77.1273 27.772L77.8113 28.456C76.9233 30.424 75.8193 32.02 74.4993 33.244C73.1793 34.468 71.8473 35.08 70.5033 35.08C69.5193 35.08 68.7873 34.768 68.3073 34.144C67.8273 33.52 67.5633 32.848 67.5153 32.128V31.948C66.5553 33.1 65.6673 34.012 64.8513 34.684C64.0593 35.356 63.2073 35.692 62.2953 35.692ZM78.0754 44.08C77.4754 44.08 76.9114 43.9 76.3834 43.54C75.8794 43.18 75.6274 42.592 75.6274 41.776C75.6274 41.008 75.8434 40.312 76.2754 39.688C76.7314 39.088 77.3194 38.524 78.0394 37.996C78.7834 37.492 79.5754 37.024 80.4154 36.592C81.2554 36.16 82.0714 35.752 82.8634 35.368C83.1274 34.72 83.3794 34.024 83.6194 33.28C83.8594 32.536 84.0874 31.732 84.3034 30.868C83.4634 31.924 82.5754 32.8 81.6394 33.496C80.7274 34.192 79.7914 34.54 78.8314 34.54C77.8714 34.54 77.1034 34.204 76.5274 33.532C75.9754 32.86 75.6994 31.972 75.6994 30.868C75.6994 29.596 76.0114 28.408 76.6354 27.304C77.2834 26.176 78.1114 25.18 79.1194 24.316C80.1274 23.428 81.2074 22.744 82.3594 22.264C83.5114 21.76 84.6154 21.508 85.6714 21.508C86.4394 21.508 87.0154 21.652 87.3994 21.94C87.7834 22.204 87.9754 22.516 87.9754 22.876C87.9754 23.164 87.8914 23.392 87.7234 23.56C87.5554 23.728 87.4474 23.824 87.3994 23.848C87.1594 23.584 86.9074 23.416 86.6434 23.344C86.4034 23.248 86.1154 23.2 85.7794 23.2C84.8434 23.2 83.9434 23.464 83.0794 23.992C82.2154 24.52 81.4474 25.204 80.7754 26.044C80.1274 26.86 79.6114 27.712 79.2274 28.6C78.8434 29.488 78.6514 30.292 78.6514 31.012C78.6514 31.492 78.7594 31.864 78.9754 32.128C79.1914 32.368 79.4554 32.488 79.7674 32.488C80.4394 32.488 81.2554 32.056 82.2154 31.192C83.1754 30.304 84.0994 29.236 84.9874 27.988C85.0594 27.628 85.1314 27.304 85.2034 27.016C85.4434 26.056 85.7314 25.348 86.0674 24.892C86.4034 24.436 86.8714 24.208 87.4714 24.208C87.5914 24.208 87.7354 24.22 87.9034 24.244C88.0954 24.268 88.2994 24.304 88.5154 24.352C88.5154 24.784 88.3954 25.492 88.1554 26.476C87.9154 27.46 87.5914 28.612 87.1834 29.932C86.7754 31.228 86.3194 32.56 85.8154 33.928C86.5594 33.616 87.3154 33.184 88.0834 32.632C88.8514 32.056 89.5594 31.372 90.2074 30.58C90.8554 29.764 91.3474 28.864 91.6834 27.88L92.3314 28.528C91.9474 29.632 91.3474 30.64 90.5314 31.552C89.7394 32.464 88.8754 33.256 87.9394 33.928C87.0034 34.576 86.1394 35.08 85.3474 35.44C84.6994 37.024 83.9914 38.464 83.2234 39.76C82.4794 41.08 81.6754 42.124 80.8114 42.892C79.9714 43.684 79.0594 44.08 78.0754 44.08ZM77.9314 42.424C78.3634 42.424 78.9514 42.016 79.6954 41.2C80.4634 40.384 81.2914 39.004 82.1794 37.06C81.2914 37.492 80.4754 37.936 79.7314 38.392C78.9874 38.848 78.3874 39.328 77.9314 39.832C77.4754 40.336 77.2474 40.864 77.2474 41.416C77.2474 42.088 77.4754 42.424 77.9314 42.424ZM94.9709 35.584C93.4349 35.584 92.2469 35.164 91.4069 34.324C90.5909 33.508 90.1829 32.476 90.1829 31.228C90.1829 30.172 90.4469 29.056 90.9749 27.88C91.5269 26.68 92.2589 25.564 93.1709 24.532C94.0829 23.476 95.0909 22.624 96.1949 21.976C97.2989 21.328 98.4029 21.004 99.5069 21.004C100.131 21.004 100.719 21.172 101.271 21.508C101.847 21.82 102.135 22.456 102.135 23.416C102.135 24.328 101.871 25.18 101.343 25.972C100.815 26.764 100.107 27.472 99.2189 28.096C98.3309 28.72 97.3469 29.236 96.2669 29.644C95.2109 30.028 94.1429 30.28 93.0629 30.4C93.0389 30.496 93.0149 30.604 92.9909 30.724C92.9909 30.82 92.9909 30.988 92.9909 31.228C92.9909 31.348 93.0029 31.564 93.0269 31.876C93.0749 32.164 93.1829 32.476 93.3509 32.812C93.5189 33.148 93.7949 33.436 94.1789 33.676C94.5629 33.916 95.0909 34.036 95.7629 34.036C96.7709 34.036 97.7789 33.76 98.7869 33.208C99.8189 32.632 100.779 31.876 101.667 30.94C102.579 30.004 103.335 28.96 103.935 27.808L104.655 28.384C104.007 29.824 103.167 31.084 102.135 32.164C101.127 33.244 99.9989 34.084 98.7509 34.684C97.5269 35.284 96.2669 35.584 94.9709 35.584ZM93.4589 29.068C94.0829 28.996 94.7789 28.78 95.5469 28.42C96.3149 28.06 97.0469 27.604 97.7429 27.052C98.4629 26.5 99.0509 25.9 99.5069 25.252C99.9629 24.58 100.191 23.908 100.191 23.236C100.191 22.972 100.143 22.792 100.047 22.696C99.9509 22.6 99.7949 22.552 99.5789 22.552C99.0269 22.552 98.4509 22.756 97.8509 23.164C97.2509 23.548 96.6629 24.064 96.0869 24.712C95.5109 25.336 94.9949 26.032 94.5389 26.8C94.0829 27.568 93.7229 28.324 93.4589 29.068ZM121.236 37.132C120.852 37.132 120.384 37.048 119.832 36.88C119.304 36.736 118.824 36.424 118.392 35.944C117.984 35.488 117.78 34.816 117.78 33.928C117.78 33.016 117.996 31.852 118.428 30.436C118.86 29.02 119.364 27.436 119.94 25.684C120.516 23.908 121.02 22.024 121.452 20.032C121.884 18.016 122.1 15.964 122.1 13.876C122.1 12.604 121.956 11.572 121.668 10.78C121.404 9.988 120.816 9.592 119.904 9.592C119.088 9.592 118.416 9.904 117.888 10.528C117.384 11.128 117.012 11.86 116.772 12.724C116.556 13.588 116.448 14.38 116.448 15.1C116.448 15.508 116.484 15.904 116.556 16.288C116.652 16.672 116.796 17.056 116.988 17.44C115.812 17.44 114.96 17.164 114.432 16.612C113.904 16.06 113.64 15.376 113.64 14.56C113.64 13.84 113.82 13.096 114.18 12.328C114.54 11.56 115.032 10.864 115.656 10.24C116.304 9.592 117.048 9.076 117.888 8.692C118.752 8.284 119.664 8.08 120.624 8.08C122.256 8.08 123.492 8.68 124.332 9.88C125.172 11.056 125.592 12.676 125.592 14.74C125.592 16.06 125.436 17.44 125.124 18.88C124.836 20.32 124.476 21.772 124.044 23.236C123.612 24.676 123.168 26.08 122.712 27.448C122.28 28.816 121.908 30.088 121.596 31.264C121.308 32.416 121.164 33.424 121.164 34.288C121.164 34.672 121.212 34.972 121.308 35.188C121.428 35.404 121.668 35.512 122.028 35.512C122.724 35.512 123.504 35.188 124.368 34.54C125.256 33.892 126.168 33.016 127.104 31.912C128.04 30.784 128.952 29.512 129.84 28.096C130.728 26.68 131.532 25.204 132.252 23.668C132.972 22.132 133.536 20.608 133.944 19.096C134.376 17.584 134.592 16.192 134.592 14.92C134.592 13.648 134.364 12.676 133.908 12.004C133.452 11.332 132.876 10.876 132.18 10.636C132.516 9.916 132.924 9.4 133.404 9.088C133.908 8.752 134.352 8.584 134.736 8.584C135.384 8.584 135.996 8.992 136.572 9.808C137.148 10.624 137.436 11.776 137.436 13.264C137.436 14.56 137.184 16.048 136.68 17.728C136.2 19.384 135.528 21.112 134.664 22.912C133.8 24.688 132.816 26.428 131.712 28.132C130.632 29.812 129.48 31.336 128.256 32.704C127.056 34.048 125.856 35.116 124.656 35.908C123.456 36.724 122.316 37.132 121.236 37.132ZM139.83 35.584C138.294 35.584 137.106 35.164 136.266 34.324C135.45 33.508 135.042 32.476 135.042 31.228C135.042 30.172 135.306 29.056 135.834 27.88C136.386 26.68 137.118 25.564 138.03 24.532C138.942 23.476 139.95 22.624 141.054 21.976C142.158 21.328 143.262 21.004 144.366 21.004C144.99 21.004 145.578 21.172 146.13 21.508C146.706 21.82 146.994 22.456 146.994 23.416C146.994 24.328 146.73 25.18 146.202 25.972C145.674 26.764 144.966 27.472 144.078 28.096C143.19 28.72 142.206 29.236 141.126 29.644C140.07 30.028 139.002 30.28 137.922 30.4C137.898 30.496 137.874 30.604 137.85 30.724C137.85 30.82 137.85 30.988 137.85 31.228C137.85 31.348 137.862 31.564 137.886 31.876C137.934 32.164 138.042 32.476 138.21 32.812C138.378 33.148 138.654 33.436 139.038 33.676C139.422 33.916 139.95 34.036 140.622 34.036C141.63 34.036 142.638 33.76 143.646 33.208C144.678 32.632 145.638 31.876 146.526 30.94C147.438 30.004 148.194 28.96 148.794 27.808L149.514 28.384C148.866 29.824 148.026 31.084 146.994 32.164C145.986 33.244 144.858 34.084 143.61 34.684C142.386 35.284 141.126 35.584 139.83 35.584ZM138.318 29.068C138.942 28.996 139.638 28.78 140.406 28.42C141.174 28.06 141.906 27.604 142.602 27.052C143.322 26.5 143.91 25.9 144.366 25.252C144.822 24.58 145.05 23.908 145.05 23.236C145.05 22.972 145.002 22.792 144.906 22.696C144.81 22.6 144.654 22.552 144.438 22.552C143.886 22.552 143.31 22.756 142.71 23.164C142.11 23.548 141.522 24.064 140.946 24.712C140.37 25.336 139.854 26.032 139.398 26.8C138.942 27.568 138.582 28.324 138.318 29.068ZM149.58 35.368C149.052 35.368 148.668 34.96 148.428 34.144C148.212 33.328 148.104 32.38 148.104 31.3C148.104 30.196 148.284 28.864 148.644 27.304C149.028 25.744 149.532 24.1 150.156 22.372C150.804 20.644 151.512 18.952 152.28 17.296C153.072 15.64 153.876 14.14 154.692 12.796C155.532 11.428 156.324 10.336 157.068 9.52C157.836 8.704 158.508 8.296 159.084 8.296C159.588 8.296 159.972 8.572 160.236 9.124C160.5 9.676 160.632 10.252 160.632 10.852C160.632 11.5 160.476 12.304 160.164 13.264C159.876 14.2 159.468 15.208 158.94 16.288C158.412 17.368 157.788 18.436 157.068 19.492C156.372 20.524 155.604 21.472 154.764 22.336C153.948 23.2 153.096 23.896 152.208 24.424C151.752 25.672 151.428 26.788 151.236 27.772C151.068 28.732 150.984 29.656 150.984 30.544C150.984 30.664 150.984 30.796 150.984 30.94C151.008 31.06 151.02 31.18 151.02 31.3C151.116 31.156 151.272 30.784 151.488 30.184C151.704 29.584 151.992 28.888 152.352 28.096C152.736 27.28 153.204 26.488 153.756 25.72C154.308 24.928 154.956 24.28 155.7 23.776C156.444 23.248 157.296 22.984 158.256 22.984C159.072 22.984 159.708 23.176 160.164 23.56C160.62 23.92 160.944 24.376 161.136 24.928C161.328 25.456 161.424 25.996 161.424 26.548C161.424 27.316 161.292 28.036 161.028 28.708C160.788 29.38 160.536 30.016 160.272 30.616C160.032 31.192 159.912 31.744 159.912 32.272C159.912 32.704 160.008 33.004 160.2 33.172C160.392 33.34 160.62 33.424 160.884 33.424C161.412 33.424 162.024 33.16 162.72 32.632C163.44 32.104 164.148 31.408 164.844 30.544C165.564 29.656 166.176 28.684 166.68 27.628L167.256 28.24C166.704 29.44 166.056 30.544 165.312 31.552C164.568 32.56 163.752 33.364 162.864 33.964C161.976 34.564 161.016 34.864 159.984 34.864C159.072 34.864 158.376 34.624 157.896 34.144C157.416 33.664 157.176 33.064 157.176 32.344C157.176 31.84 157.26 31.288 157.428 30.688C157.62 30.064 157.8 29.44 157.968 28.816C158.136 28.192 158.22 27.628 158.22 27.124C158.22 26.548 158.088 26.152 157.824 25.936C157.584 25.72 157.284 25.612 156.924 25.612C156.324 25.612 155.784 25.852 155.304 26.332C154.824 26.788 154.392 27.388 154.008 28.132C153.624 28.876 153.264 29.668 152.928 30.508C152.592 31.324 152.256 32.104 151.92 32.848C151.584 33.592 151.224 34.192 150.84 34.648C150.48 35.128 150.06 35.368 149.58 35.368ZM152.964 22.12C153.732 21.424 154.464 20.584 155.16 19.6C155.88 18.592 156.516 17.572 157.068 16.54C157.62 15.508 158.052 14.572 158.364 13.732C158.7 12.868 158.88 12.22 158.904 11.788V11.68C158.76 11.68 158.448 11.98 157.968 12.58C157.512 13.156 156.972 13.948 156.348 14.956C155.748 15.94 155.136 17.056 154.512 18.304C153.912 19.552 153.396 20.824 152.964 22.12ZM172.841 18.844C172.385 18.844 171.965 18.736 171.581 18.52C171.221 18.28 171.041 17.92 171.041 17.44C171.041 16.864 171.353 16.372 171.977 15.964C172.601 15.556 173.249 15.352 173.921 15.352C174.353 15.352 174.713 15.448 175.001 15.64C175.313 15.832 175.469 16.18 175.469 16.684C175.469 17.188 175.193 17.68 174.641 18.16C174.089 18.616 173.489 18.844 172.841 18.844ZM168.593 35.08C167.537 35.08 166.745 34.768 166.217 34.144C165.689 33.52 165.425 32.764 165.425 31.876C165.425 31.324 165.521 30.628 165.713 29.788C165.905 28.948 166.169 28.072 166.505 27.16C166.865 26.224 167.273 25.348 167.729 24.532C168.185 23.716 168.677 23.056 169.205 22.552C169.733 22.024 170.261 21.76 170.789 21.76C171.077 21.76 171.329 21.856 171.545 22.048C171.761 22.216 171.869 22.468 171.869 22.804C171.869 23.116 171.677 23.584 171.293 24.208C170.933 24.832 170.501 25.552 169.997 26.368C169.517 27.184 169.085 28.036 168.701 28.924C168.341 29.788 168.161 30.616 168.161 31.408C168.161 32.176 168.293 32.692 168.557 32.956C168.845 33.196 169.253 33.316 169.781 33.316C170.597 33.316 171.485 32.908 172.445 32.092C173.405 31.276 174.401 29.848 175.433 27.808L175.973 28.384C175.133 30.496 174.065 32.14 172.769 33.316C171.473 34.492 170.081 35.08 168.593 35.08ZM178.57 36.016C177.322 36.016 176.29 35.62 175.474 34.828C174.682 34.06 174.286 32.872 174.286 31.264C174.286 30.088 174.514 28.936 174.97 27.808C175.426 26.68 176.038 25.672 176.806 24.784C177.574 23.872 178.426 23.152 179.362 22.624C180.322 22.096 181.294 21.832 182.278 21.832C183.286 21.832 184.006 22.084 184.438 22.588C184.894 23.092 185.122 23.68 185.122 24.352C185.122 25.024 184.954 25.684 184.618 26.332C184.306 26.956 183.874 27.268 183.322 27.268C182.866 27.268 182.494 27.04 182.206 26.584C182.446 26.416 182.698 26.104 182.962 25.648C183.226 25.192 183.358 24.604 183.358 23.884C183.358 23.476 183.13 23.272 182.674 23.272C182.074 23.272 181.438 23.548 180.766 24.1C180.118 24.628 179.506 25.324 178.93 26.188C178.378 27.028 177.922 27.928 177.562 28.888C177.226 29.824 177.058 30.688 177.058 31.48C177.058 32.152 177.226 32.776 177.562 33.352C177.922 33.904 178.606 34.18 179.614 34.18C180.526 34.18 181.474 33.916 182.458 33.388C183.442 32.86 184.366 32.128 185.23 31.192C186.094 30.232 186.79 29.092 187.318 27.772L188.038 28.42C187.462 29.884 186.658 31.192 185.626 32.344C184.618 33.472 183.49 34.36 182.242 35.008C181.018 35.68 179.794 36.016 178.57 36.016ZM189.586 35.08C188.458 35.08 187.666 34.708 187.21 33.964C186.778 33.196 186.562 32.296 186.562 31.264C186.562 30.088 186.778 28.708 187.21 27.124C187.642 25.54 188.206 23.884 188.902 22.156C189.622 20.404 190.402 18.7 191.242 17.044C192.106 15.364 192.97 13.852 193.834 12.508C194.698 11.164 195.49 10.096 196.21 9.304C196.954 8.488 197.554 8.08 198.01 8.08C198.322 8.08 198.586 8.248 198.802 8.584C199.018 8.896 199.186 9.28 199.306 9.736C199.45 10.168 199.522 10.576 199.522 10.96C199.522 11.608 199.354 12.46 199.018 13.516C198.706 14.548 198.25 15.688 197.65 16.936C197.074 18.184 196.378 19.468 195.562 20.788C194.77 22.084 193.882 23.32 192.898 24.496C191.938 25.672 190.906 26.692 189.802 27.556C189.706 28.156 189.61 28.756 189.514 29.356C189.442 29.932 189.406 30.46 189.406 30.94C189.406 31.804 189.55 32.44 189.838 32.848C190.126 33.232 190.498 33.424 190.954 33.424C191.554 33.424 192.166 33.148 192.79 32.596C193.438 32.02 194.05 31.3 194.626 30.436C195.226 29.548 195.742 28.636 196.174 27.7L197.038 28.168C196.006 30.304 194.854 31.996 193.582 33.244C192.31 34.468 190.978 35.08 189.586 35.08ZM190.45 25.324C191.458 24.22 192.406 22.996 193.294 21.652C194.182 20.308 194.962 18.976 195.634 17.656C196.33 16.312 196.87 15.1 197.254 14.02C197.638 12.916 197.842 12.064 197.866 11.464V11.356C197.674 11.356 197.362 11.632 196.93 12.184C196.522 12.712 196.03 13.444 195.454 14.38C194.878 15.316 194.278 16.384 193.654 17.584C193.054 18.784 192.466 20.056 191.89 21.4C191.338 22.72 190.858 24.028 190.45 25.324ZM199.49 35.584C197.954 35.584 196.766 35.164 195.926 34.324C195.11 33.508 194.702 32.476 194.702 31.228C194.702 30.172 194.966 29.056 195.494 27.88C196.046 26.68 196.778 25.564 197.69 24.532C198.602 23.476 199.61 22.624 200.714 21.976C201.818 21.328 202.922 21.004 204.026 21.004C204.65 21.004 205.238 21.172 205.79 21.508C206.366 21.82 206.654 22.456 206.654 23.416C206.654 24.328 206.39 25.18 205.862 25.972C205.334 26.764 204.626 27.472 203.738 28.096C202.85 28.72 201.866 29.236 200.786 29.644C199.73 30.028 198.662 30.28 197.582 30.4C197.558 30.496 197.534 30.604 197.51 30.724C197.51 30.82 197.51 30.988 197.51 31.228C197.51 31.348 197.522 31.564 197.546 31.876C197.594 32.164 197.702 32.476 197.87 32.812C198.038 33.148 198.314 33.436 198.698 33.676C199.082 33.916 199.61 34.036 200.282 34.036C201.29 34.036 202.298 33.76 203.306 33.208C204.338 32.632 205.298 31.876 206.186 30.94C207.098 30.004 207.854 28.96 208.454 27.808L209.174 28.384C208.526 29.824 207.686 31.084 206.654 32.164C205.646 33.244 204.518 34.084 203.27 34.684C202.046 35.284 200.786 35.584 199.49 35.584ZM197.978 29.068C198.602 28.996 199.298 28.78 200.066 28.42C200.834 28.06 201.566 27.604 202.262 27.052C202.982 26.5 203.57 25.9 204.026 25.252C204.482 24.58 204.71 23.908 204.71 23.236C204.71 22.972 204.662 22.792 204.566 22.696C204.47 22.6 204.314 22.552 204.098 22.552C203.546 22.552 202.97 22.756 202.37 23.164C201.77 23.548 201.182 24.064 200.606 24.712C200.03 25.336 199.514 26.032 199.058 26.8C198.602 27.568 198.242 28.324 197.978 29.068ZM211.796 35.836C210.596 35.836 209.624 35.584 208.88 35.08C208.16 34.6 207.644 33.988 207.332 33.244C207.02 32.476 206.864 31.696 206.864 30.904C206.864 30.208 206.96 29.668 207.152 29.284C207.344 28.9 207.584 28.624 207.872 28.456C208.16 28.264 208.424 28.12 208.664 28.024C208.928 27.928 209.12 27.82 209.24 27.7C209.84 27.076 210.452 26.356 211.076 25.54C211.724 24.7 212.276 23.776 212.732 22.768V22.408C212.732 21.448 212.888 20.776 213.2 20.392C213.536 19.984 213.92 19.78 214.352 19.78C214.64 19.78 214.844 19.852 214.964 19.996C215.108 20.14 215.192 20.308 215.216 20.5C215.216 20.644 215.18 20.812 215.108 21.004C215.06 21.196 215.036 21.46 215.036 21.796C215.036 22.516 215.204 23.344 215.54 24.28C215.9 25.192 216.248 26.164 216.584 27.196C216.944 28.228 217.124 29.284 217.124 30.364C217.124 30.652 217.112 30.916 217.088 31.156C217.064 31.396 217.028 31.624 216.98 31.84C217.724 31.648 218.456 31.24 219.176 30.616C219.896 29.968 220.58 29.02 221.228 27.772L221.66 28.096C221.204 29.464 220.544 30.568 219.68 31.408C218.816 32.224 217.808 32.728 216.656 32.92C216.272 33.904 215.636 34.636 214.748 35.116C213.884 35.596 212.9 35.836 211.796 35.836ZM214.136 31.768C214.184 31.6 214.208 31.408 214.208 31.192C214.232 30.952 214.244 30.772 214.244 30.652C214.22 29.572 214.076 28.504 213.812 27.448C213.548 26.392 213.284 25.312 213.02 24.208C212.588 24.952 212.084 25.756 211.508 26.62C210.932 27.484 210.392 28.18 209.888 28.708C210.272 29.356 210.836 29.968 211.58 30.544C212.324 31.12 213.176 31.528 214.136 31.768ZM211.544 34.252C212.024 34.252 212.468 34.132 212.876 33.892C213.284 33.652 213.608 33.304 213.848 32.848C212.864 32.632 211.976 32.248 211.184 31.696C210.392 31.144 209.78 30.58 209.348 30.004C209.012 30.076 208.844 30.4 208.844 30.976C208.844 31.768 209.072 32.512 209.528 33.208C209.984 33.904 210.656 34.252 211.544 34.252Z" fill="white"/>
</svg>
